<svg width="36" height="36" viewBox="0 0 36 36" fill="none" xmlns="http://www.w3.org/2000/svg">
<path d="M18.5 26.4149C15.8 26.4149 13.505 25.4699 11.615 23.5799C9.725 21.6899 8.78 19.3949 8.78 16.6949C8.78 13.9949 9.725 11.6999 11.615 9.80985C13.505 7.91985 15.8 6.97485 18.5 6.97485C18.752 6.97485 18.9995 6.98385 19.2425 7.00185C19.5036 7.02119 19.5907 7.35786 19.3981 7.53515C18.9155 7.97932 18.5126 8.50806 18.1895 9.12135C17.7485 9.95835 17.528 10.8629 17.528 11.8349C17.528 13.4549 18.095 14.8319 19.229 15.9659C20.363 17.0999 21.74 17.6669 23.36 17.6669C24.35 17.6669 25.259 17.4464 26.087 17.0054C26.6935 16.6823 27.2179 16.2796 27.6602 15.7972C27.8372 15.6043 28.1737 15.6913 28.193 15.9524C28.211 16.1954 28.22 16.4429 28.22 16.6949C28.22 19.3949 27.275 21.6899 25.385 23.5799C23.495 25.4699 21.2 26.4149 18.5 26.4149ZM18.5 24.2549C20.084 24.2549 21.506 23.8184 22.766 22.9454C23.7162 22.287 24.4719 21.4776 25.0331 20.5173C25.2636 20.1229 24.8918 19.6781 24.44 19.7459C24.08 19.7999 23.72 19.8269 23.36 19.8269C21.146 19.8269 19.2605 19.0484 17.7035 17.4914C16.1465 15.9344 15.368 14.0489 15.368 11.8349C15.368 11.4749 15.395 11.1149 15.449 10.7549C15.5168 10.3031 15.072 9.93123 14.6776 10.1617C13.7172 10.7229 12.9079 11.4786 12.2495 12.4289C11.3765 13.6889 10.94 15.1109 10.94 16.6949C10.94 18.7829 11.678 20.5649 13.154 22.0409C14.63 23.5169 16.412 24.2549 18.5 24.2549Z" fill="black"/>
<path d="M25.9554 34.2208V28.4939H29.5466V29.2454H26.8255V30.9777H29.3567V31.7212H26.8255V33.4694H29.5782V34.2208H25.9554Z" fill="black"/>
<path d="M22.2217 34.2208H20.3629V28.4939H22.2771C23.962 28.4939 24.9745 29.5697 24.9745 31.3495C24.9745 33.1372 23.962 34.2208 22.2217 34.2208ZM21.233 33.4615H22.1743C23.4715 33.4615 24.1123 32.7021 24.1123 31.3495C24.1123 30.0047 23.4715 29.2533 22.2217 29.2533H21.233V33.4615Z" fill="black"/>
<path d="M19.382 31.3574C19.382 33.1846 18.2825 34.3 16.8033 34.3C15.3083 34.3 14.2167 33.1846 14.2167 31.3574C14.2167 29.5222 15.3083 28.4148 16.8033 28.4148C18.2825 28.4148 19.382 29.5222 19.382 31.3574ZM18.5198 31.3574C18.5198 29.9652 17.7842 29.2137 16.8033 29.2137C15.8145 29.2137 15.0789 29.9652 15.0789 31.3574C15.0789 32.7496 15.8145 33.501 16.8033 33.501C17.7842 33.501 18.5198 32.7496 18.5198 31.3574Z" fill="black"/>
<path d="M7.42184 28.4939H8.48181L10.2932 32.9315H10.3644L12.1758 28.4939H13.2358V34.2208H12.4052V30.0838H12.3499L10.6729 34.2129H9.98474L8.29987 30.0759H8.25241V34.2208H7.42184V28.4939Z" fill="black"/>
</svg>
