<svg width="36" height="36" viewBox="0 0 36 36" fill="none" xmlns="http://www.w3.org/2000/svg">
<path d="M18.5 18.7612C19.391 18.7612 20.1483 18.4493 20.772 17.8256C21.3958 17.2019 21.7076 16.4446 21.7076 15.5536C21.7076 14.6626 21.3958 13.9052 20.772 13.2815C20.1483 12.6578 19.391 12.346 18.5 12.346C17.609 12.346 16.8517 12.6578 16.228 13.2815C15.6042 13.9052 15.2924 14.6626 15.2924 15.5536C15.2924 16.4446 15.6042 17.2019 16.228 17.8256C16.8517 18.4493 17.609 18.7612 18.5 18.7612ZM18.5 20.8996C17.0209 20.8996 15.7602 20.3783 14.7177 19.3359C13.6752 18.2934 13.154 17.0326 13.154 15.5536C13.154 14.0745 13.6752 12.8138 14.7177 11.7713C15.7602 10.7288 17.0209 10.2076 18.5 10.2076C19.9791 10.2076 21.2398 10.7288 22.2823 11.7713C23.3248 12.8138 23.846 14.0745 23.846 15.5536C23.846 17.0326 23.3248 18.2934 22.2823 19.3359C21.2398 20.3783 19.9791 20.8996 18.5 20.8996ZM11.0156 15.5536C11.0156 16.1441 10.5369 16.6228 9.9464 16.6228H7.808C7.2175 16.6228 6.7388 16.1441 6.7388 15.5536C6.7388 14.9631 7.2175 14.4844 7.808 14.4844H9.9464C10.5369 14.4844 11.0156 14.9631 11.0156 15.5536ZM30.2612 15.5536C30.2612 16.1441 29.7825 16.6228 29.192 16.6228H27.0536C26.4631 16.6228 25.9844 16.1441 25.9844 15.5536C25.9844 14.9631 26.4631 14.4844 27.0536 14.4844H29.192C29.7825 14.4844 30.2612 14.9631 30.2612 15.5536ZM18.5 8.96918C17.9095 8.96918 17.4308 8.49048 17.4308 7.89998V5.76158C17.4308 5.17108 17.9095 4.69238 18.5 4.69238C19.0905 4.69238 19.5692 5.17108 19.5692 5.76158V6.83078V7.89998C19.5692 8.49049 19.0905 8.96918 18.5 8.96918ZM18.5 26.4148C17.9095 26.4148 17.4308 25.9361 17.4308 25.3456V23.2072C17.4308 22.6167 17.9095 22.138 18.5 22.138C19.0905 22.138 19.5692 22.6167 19.5692 23.2072V25.3456C19.5692 25.9361 19.0905 26.4148 18.5 26.4148ZM13.2333 10.2333C12.8372 10.6598 12.1683 10.679 11.7485 10.2757L10.5898 9.16297C10.161 8.75116 10.1483 8.06939 10.5613 7.64182C10.9846 7.20374 11.687 7.20485 12.1088 7.64426L13.2214 8.80316C13.6037 9.2014 13.6089 9.82873 13.2333 10.2333ZM26.4386 23.4654C26.0154 23.9035 25.313 23.9025 24.8911 23.4631L23.7648 22.2905C23.3773 21.8869 23.3778 21.2493 23.7661 20.8464C24.1647 20.4327 24.8231 20.4199 25.2374 20.8179L26.4101 21.9441C26.8389 22.356 26.8517 23.0378 26.4386 23.4654ZM23.8203 10.2868C23.3938 9.89074 23.3746 9.22192 23.7778 8.80207L24.8906 7.6434C25.3024 7.21461 25.9842 7.20185 26.4118 7.61492C26.8498 8.03815 26.8487 8.74058 26.4093 9.16242L25.2504 10.275C24.8522 10.6573 24.2249 10.6625 23.8203 10.2868ZM10.5882 23.4922C10.1501 23.0689 10.1511 22.3666 10.5904 21.9447L11.7631 20.8184C12.1667 20.4309 12.8043 20.4314 13.2072 20.8196C13.6209 21.2183 13.6337 21.8766 13.2357 22.291L12.1095 23.4637C11.6976 23.8925 11.0158 23.9053 10.5882 23.4922Z" fill="black"/>
<path d="M25.9554 34.2208V28.4939H29.5466V29.2454H26.8255V30.9777H29.3567V31.7212H26.8255V33.4694H29.5782V34.2208H25.9554Z" fill="black"/>
<path d="M22.2217 34.2208H20.3629V28.4939H22.2771C23.962 28.4939 24.9745 29.5697 24.9745 31.3495C24.9745 33.1372 23.962 34.2208 22.2217 34.2208ZM21.233 33.4615H22.1743C23.4715 33.4615 24.1123 32.7021 24.1123 31.3495C24.1123 30.0047 23.4715 29.2533 22.2217 29.2533H21.233V33.4615Z" fill="black"/>
<path d="M19.382 31.3574C19.382 33.1846 18.2825 34.3 16.8033 34.3C15.3083 34.3 14.2167 33.1846 14.2167 31.3574C14.2167 29.5222 15.3083 28.4148 16.8033 28.4148C18.2825 28.4148 19.382 29.5222 19.382 31.3574ZM18.5198 31.3574C18.5198 29.9652 17.7842 29.2137 16.8033 29.2137C15.8145 29.2137 15.0789 29.9652 15.0789 31.3574C15.0789 32.7496 15.8145 33.501 16.8033 33.501C17.7842 33.501 18.5198 32.7496 18.5198 31.3574Z" fill="black"/>
<path d="M7.42184 28.4939H8.48181L10.2932 32.9315H10.3644L12.1758 28.4939H13.2358V34.2208H12.4052V30.0838H12.3499L10.6729 34.2129H9.98474L8.29987 30.0759H8.25241V34.2208H7.42184V28.4939Z" fill="black"/>
</svg>
