<svg width="167" height="34" viewBox="0 0 167 34" fill="none" xmlns="http://www.w3.org/2000/svg">
<g clip-path="url(#clip0_1423_8086)">
<path d="M40.4921 16.4336C42.0129 14.9233 42.0129 12.4746 40.4921 10.9643L33.9342 4.43992C32.4134 2.92961 29.9477 2.92961 28.4269 4.43993L23.4958 9.34294L31.2364 17.042C32.9754 18.769 35.5251 19.3592 37.8238 18.6268C38.3424 18.4616 38.7869 18.1329 39.172 17.7504L40.4921 16.4336Z" fill="black"/>
<path fill-rule="evenodd" clip-rule="evenodd" d="M2.45294 10.462C2.79202 10.1252 3.34101 10.1391 3.76114 10.3705C4.94595 11.023 6.46823 10.8498 7.47395 9.85103C8.48304 8.84889 8.65518 7.33032 7.99037 6.15199C7.75868 5.74134 7.74491 5.20648 8.08068 4.87302L9.40148 3.56132C10.9223 2.05101 13.388 2.05101 14.9087 3.56132L30.4959 19.0411C32.0749 20.6092 34.4237 21.1306 36.5248 20.3795L28.6769 28.1732C24.1145 32.7042 16.7175 32.7042 12.1551 28.1733L1.14059 17.2346C-0.380197 15.7243 -0.380197 13.2756 1.14059 11.7653L2.45294 10.462ZM13.8073 17.7815C13.5031 18.0836 13.01 18.0836 12.7058 17.7815C12.4017 17.4795 12.4017 16.9897 12.7058 16.6877L14.358 15.0469C14.6622 14.7448 15.1553 14.7448 15.4595 15.0469C15.7636 15.3489 15.7636 15.8387 15.4595 16.1407L13.8073 17.7815ZM17.6878 12.8398C17.992 13.1418 18.4851 13.1418 18.7892 12.8398L20.4414 11.199C20.7456 10.8969 20.7456 10.4072 20.4414 10.1051C20.1373 9.80304 19.6441 9.80304 19.34 10.1051L17.6878 11.7459C17.3836 12.048 17.3836 12.5377 17.6878 12.8398ZM8.82536 22.7233C8.5212 23.0254 8.02806 23.0254 7.72391 22.7233C7.41975 22.4212 7.41975 21.9315 7.72391 21.6294L9.37608 19.9887C9.68024 19.6866 10.1734 19.6866 10.4775 19.9887C10.7817 20.2907 10.7817 20.7805 10.4775 21.0825L8.82536 22.7233Z" fill="black"/>
<path d="M64.7311 27.218L64.875 17.6476C64.2274 17.6237 63.5558 17.6117 62.8602 17.6117H62.0327V27.3259C62.0327 28.6692 61.6609 29.4607 60.9173 29.7005L60.4496 29.8445C60.2577 29.8924 60.1138 29.9164 60.0179 29.9164C59.706 29.9164 59.4422 29.7965 59.2263 29.5566C59.0344 29.3408 58.9385 29.0529 58.9385 28.6931V7.71748C58.9385 7.04587 59.0105 6.54217 59.1544 6.20637C59.2983 5.87056 59.5981 5.59473 60.0538 5.37885L60.5216 5.16298C60.7135 5.06704 60.9173 5.01907 61.1332 5.01907C61.445 5.01907 61.6729 5.15099 61.8168 5.41483C61.9607 5.65469 62.0327 5.96651 62.0327 6.35028V15.0572H64.947L65.0549 8.58097C65.0789 7.90936 65.1628 7.41765 65.3068 7.10584C65.4507 6.77004 65.7505 6.4942 66.2062 6.27833L66.674 6.06245C66.8658 5.96651 67.0577 5.91854 67.2496 5.91854C67.5614 5.91854 67.7893 6.05046 67.9332 6.3143C68.0771 6.57815 68.1491 6.90196 68.1491 7.28573L67.8253 25.9228C67.7773 27.242 67.3935 28.0215 66.674 28.2614L66.2062 28.4053C66.0143 28.4533 65.8824 28.4773 65.8105 28.4773C65.4986 28.4773 65.2348 28.3693 65.0189 28.1535C64.827 27.9136 64.7311 27.6018 64.7311 27.218ZM49.3681 20.346C48.2888 20.346 47.4852 20.1182 46.9575 19.6625C46.4538 19.2067 46.202 18.4152 46.202 17.2878L46.166 15.8847C46.166 15.6928 46.19 15.2371 46.238 14.5175C46.238 13.8459 46.3099 13.3422 46.4538 13.0064C46.5978 12.6706 46.8976 12.3947 47.3533 12.1789L47.821 11.963C48.0129 11.867 48.2168 11.8191 48.4327 11.8191C48.7445 11.8191 48.9724 11.951 49.1163 12.2148C49.2842 12.4547 49.3561 12.7665 49.3322 13.1503L49.2242 16.6762C49.2002 17.2279 49.2482 17.5757 49.3681 17.7196C49.4881 17.8395 49.7999 17.8995 50.3036 17.8995C52.4143 17.8995 54.1293 17.8395 55.4486 17.7196C55.7844 17.6716 56.0602 17.7196 56.2761 17.8635C56.4919 17.9834 56.5999 18.1633 56.5999 18.4032C56.5999 18.4751 56.5759 18.5831 56.5279 18.727L56.42 19.0508C56.348 19.2907 56.1322 19.5185 55.7724 19.7344C55.4366 19.9503 54.9808 20.0822 54.4052 20.1302C52.7262 20.2981 51.3949 20.382 50.4115 20.382L49.3681 20.346Z" fill="black"/>
<path d="M87.0295 23.1884V5.23494C87.0295 4.56333 87.1015 4.05963 87.2454 3.72383C87.3893 3.38802 87.6891 3.11219 88.1449 2.89631L88.6126 2.68044C88.8045 2.5845 89.0084 2.53653 89.2242 2.53653C89.5361 2.53653 89.7639 2.66845 89.9078 2.93229C90.0518 3.17215 90.1237 3.48397 90.1237 3.86774V10.6318C91.7548 10.6318 92.8101 10.6438 93.2899 10.6677C93.7936 10.6917 94.1893 10.7637 94.4772 10.8836C94.789 10.9796 94.8849 11.2194 94.765 11.6032L94.6571 11.999C94.5851 12.3108 94.4052 12.5386 94.1174 12.6826C93.8295 12.8025 93.5177 12.8625 93.1819 12.8625H90.1237V21.8212C90.1237 23.1644 89.7519 23.9559 89.0084 24.1958L88.5406 24.3397C88.3488 24.3877 88.2048 24.4117 88.1089 24.4117C87.7971 24.4117 87.5332 24.3037 87.3174 24.0878C87.1255 23.848 87.0295 23.5482 87.0295 23.1884ZM72.602 13.7979C72.602 12.2388 72.9738 10.9916 73.7174 10.0561C74.365 9.2166 75.3844 8.7009 76.7756 8.50901C76.8475 8.34111 76.9315 8.23317 77.0274 8.1852C77.1713 8.11324 77.3512 8.07727 77.5671 8.07727C78.6225 8.07727 79.51 8.521 80.2295 9.40848C80.9731 10.272 81.3449 11.3154 81.3449 12.5386C81.3449 14.2896 80.9491 15.6328 80.1576 16.5683C79.39 17.5037 78.2147 17.9714 76.6317 17.9714C75.4803 17.9714 74.5209 17.5757 73.7533 16.7841C72.9858 15.9926 72.602 14.9972 72.602 13.7979ZM82.82 31.5355C82.0045 31.5115 81.4168 31.3916 81.057 31.1757C80.6973 30.9838 80.5174 30.5281 80.5174 29.8085C80.5174 28.8251 80.5773 27.6378 80.6973 26.2466C80.7692 25.3831 80.8891 24.7954 81.057 24.4836C81.225 24.1478 81.5608 23.9319 82.0645 23.836L82.7121 23.6921C82.784 23.6681 82.892 23.6561 83.0359 23.6561C83.6595 23.6561 83.9354 24.1718 83.8634 25.2032L83.6115 28.5852C83.5876 28.969 83.7794 29.1609 84.1872 29.1609C85.1227 29.1609 86.5258 29.1369 88.3967 29.0889C90.2676 29.0409 91.6228 28.981 92.4623 28.909C92.7981 28.861 93.074 28.897 93.2899 29.0169C93.5057 29.1609 93.6137 29.3527 93.6137 29.5926C93.6137 29.6646 93.5897 29.7725 93.5417 29.9164L93.4338 30.2402C93.3618 30.4801 93.1459 30.708 92.7861 30.9238C92.4503 31.1397 91.9946 31.2716 91.419 31.3196C90.0757 31.4875 87.7371 31.5714 84.4031 31.5714C83.5636 31.5714 83.0359 31.5595 82.82 31.5355ZM76.9555 10.6318C76.8115 10.6318 76.7156 10.6318 76.6676 10.6318C76.2839 10.6797 75.9481 10.9796 75.6602 11.5312C75.3724 12.0829 75.2285 12.7305 75.2285 13.4741C75.2285 14.1457 75.3964 14.6734 75.7322 15.0572C76.092 15.4409 76.5117 15.6328 76.9914 15.6328C78.1188 15.6328 78.6824 14.7573 78.6824 13.0064C78.6824 12.3827 78.5865 11.903 78.3946 11.5672C78.2267 11.2314 78.0228 11.0035 77.783 10.8836C77.6151 10.8117 77.3992 10.7157 77.1354 10.5958C77.0874 10.6198 77.0274 10.6318 76.9555 10.6318Z" fill="black"/>
<path d="M114.389 29.5566V6.92594C114.389 6.25434 114.461 5.75063 114.605 5.41483C114.749 5.07903 115.049 4.80319 115.504 4.58732L115.972 4.37145C116.164 4.2755 116.368 4.22753 116.584 4.22753C116.895 4.22753 117.123 4.35945 117.267 4.6233C117.411 4.86316 117.483 5.17497 117.483 5.55875V28.1894C117.483 29.5326 117.111 30.3242 116.368 30.564L115.9 30.708C115.708 30.7559 115.564 30.7799 115.468 30.7799C115.156 30.7799 114.893 30.66 114.677 30.4201C114.485 30.2042 114.389 29.9164 114.389 29.5566ZM100.681 13.8699C100.681 11.3034 102.072 9.81624 104.855 9.40848C104.879 9.3845 104.902 9.34852 104.926 9.30055C105.046 8.98873 105.166 8.79684 105.286 8.72488C105.43 8.65293 105.61 8.61695 105.826 8.61695C106.45 8.61695 107.049 8.84482 107.625 9.30055C108.225 9.73229 108.704 10.3439 109.064 11.1355C109.424 11.903 109.604 12.7545 109.604 13.69C109.604 14.9612 109.22 15.9926 108.452 16.7841C107.685 17.5517 106.558 17.9355 105.07 17.9355C103.727 17.9355 102.66 17.5517 101.868 16.7841C101.077 16.0166 100.681 15.0452 100.681 13.8699ZM97.3709 23.9799C97.3709 23.812 97.4309 23.6321 97.5508 23.4402L97.8027 23.0085C97.9946 22.6967 98.2104 22.4928 98.4503 22.3968C98.6901 22.3009 99.014 22.2409 99.4217 22.2169C100.597 22.145 102.384 22.109 104.783 22.109C107.301 22.109 109.46 22.145 111.259 22.2169C111.738 22.2409 112.11 22.3129 112.374 22.4328C112.662 22.5288 112.77 22.7686 112.698 23.1524L112.626 23.5841C112.554 23.9439 112.338 24.2078 111.978 24.3757C111.643 24.5196 111.295 24.5916 110.935 24.5916C109.592 24.5436 107.265 24.5196 103.955 24.5196C101.053 24.5196 99.2898 24.5436 98.6662 24.5916C97.8027 24.6155 97.3709 24.4117 97.3709 23.9799ZM105.61 11.3513C105.514 11.4473 105.382 11.5072 105.214 11.5312C105.07 11.5312 104.974 11.5312 104.926 11.5312C104.495 11.6032 104.111 11.8071 103.775 12.1429C103.463 12.4547 103.307 12.9224 103.307 13.546C103.307 14.1457 103.463 14.6374 103.775 15.0212C104.111 15.405 104.543 15.5968 105.07 15.5968C105.598 15.5968 106.042 15.4649 106.402 15.2011C106.761 14.9132 106.941 14.4455 106.941 13.7979C106.941 12.6466 106.522 11.8191 105.682 11.3154L105.61 11.3513Z" fill="black"/>
<path d="M132.079 10.4159C132.079 10.296 132.127 10.1161 132.223 9.87621L132.331 9.62436C132.523 9.33653 132.727 9.14464 132.943 9.04869C133.183 8.95275 133.518 8.88079 133.95 8.83282C134.478 8.78485 135.329 8.76086 136.505 8.76086C137.32 8.76086 138.16 8.77286 139.023 8.79684V5.127C139.023 4.4554 139.095 3.95169 139.239 3.61589C139.383 3.28009 139.683 3.00425 140.139 2.78838L140.606 2.5725C140.798 2.47656 141.002 2.42859 141.218 2.42859C141.53 2.42859 141.758 2.56051 141.901 2.82436C142.045 3.06422 142.117 3.37603 142.117 3.75981V21.6773C142.117 23.0205 141.746 23.812 141.002 24.0519L140.534 24.1958C140.342 24.2438 140.198 24.2677 140.103 24.2677C139.791 24.2677 139.527 24.1598 139.311 23.9439C139.119 23.7041 139.023 23.4042 139.023 23.0445V16.7482C138.591 16.7482 138.256 16.7362 138.016 16.7122L136.109 16.6762L134.49 16.7122C134.178 16.7362 133.734 16.7482 133.159 16.7482C132.439 16.7482 132.079 16.5443 132.079 16.1365C132.079 16.0166 132.127 15.8367 132.223 15.5968L132.331 15.345C132.523 15.0572 132.727 14.8653 132.943 14.7693C133.183 14.6734 133.518 14.6014 133.95 14.5535C134.478 14.5055 135.329 14.4815 136.505 14.4815C137.32 14.4815 138.16 14.4935 139.023 14.5175V11.0275C138.591 11.0275 138.256 11.0155 138.016 10.9916L136.109 10.9556L134.49 10.9916C134.178 11.0155 133.734 11.0275 133.159 11.0275C132.439 11.0275 132.079 10.8237 132.079 10.4159ZM121.897 14.3376C121.897 12.6346 122.329 11.1954 123.192 10.0201C123.912 9.01272 124.931 8.40108 126.251 8.1852C126.275 8.13723 126.299 8.08926 126.323 8.04129C126.443 7.72947 126.562 7.53758 126.682 7.46563C126.826 7.39367 127.006 7.35769 127.222 7.35769C128.253 7.35769 129.081 7.83741 129.705 8.79684C130.328 9.75628 130.64 10.9436 130.64 12.3587C130.64 14.2776 130.184 15.8127 129.273 16.964C128.385 18.1154 127.15 18.691 125.567 18.691C124.44 18.691 123.54 18.2953 122.869 17.5037C122.221 16.6882 121.897 15.6328 121.897 14.3376ZM134.814 31.5355C133.998 31.5115 133.41 31.3916 133.051 31.1757C132.691 30.9838 132.511 30.5281 132.511 29.8085C132.511 28.8251 132.571 27.6378 132.691 26.2466C132.763 25.3831 132.883 24.7954 133.051 24.4836C133.219 24.1478 133.554 23.9319 134.058 23.836L134.706 23.6921C134.778 23.6681 134.886 23.6561 135.03 23.6561C135.653 23.6561 135.929 24.1718 135.857 25.2032L135.605 28.5852C135.581 28.969 135.773 29.1609 136.181 29.1609C136.876 29.1609 137.848 29.1369 139.095 29.0889C140.366 29.0409 141.434 28.981 142.297 28.909C142.633 28.861 142.909 28.897 143.125 29.0169C143.341 29.1609 143.449 29.3527 143.449 29.5926C143.449 29.6646 143.425 29.7725 143.377 29.9164L143.269 30.2402C143.197 30.4801 142.981 30.708 142.621 30.9238C142.285 31.1397 141.83 31.2716 141.254 31.3196C139.911 31.4875 138.184 31.5714 136.073 31.5714C135.449 31.5714 135.03 31.5595 134.814 31.5355ZM127.006 10.0921C126.91 10.188 126.778 10.248 126.61 10.272C126.467 10.272 126.371 10.272 126.323 10.272C125.915 10.3439 125.507 10.6917 125.099 11.3154C124.716 11.939 124.524 12.7185 124.524 13.654C124.524 14.3975 124.644 15.0332 124.883 15.5609C125.147 16.0886 125.495 16.3524 125.927 16.3524C126.479 16.3524 126.958 16.0646 127.366 15.4889C127.774 14.9132 127.978 14.0258 127.978 12.8265C127.978 12.0349 127.918 11.4353 127.798 11.0275C127.678 10.6198 127.51 10.3439 127.294 10.2C127.222 10.152 127.15 10.1041 127.078 10.0561L127.006 10.0921Z" fill="black"/>
<path d="M146.28 20.346C146.28 20.1781 146.34 19.9983 146.46 19.8064L146.711 19.3746C146.879 19.0868 147.071 18.9069 147.287 18.8349C147.503 18.739 147.851 18.655 148.33 18.5831C149.482 18.4392 151.628 18.3672 154.771 18.3672C157.913 18.3672 161.391 18.4392 165.205 18.5831C165.684 18.6071 166.056 18.679 166.32 18.799C166.608 18.8949 166.716 19.1348 166.644 19.5185L166.572 19.9503C166.5 20.3101 166.284 20.5739 165.924 20.7418C165.588 20.9097 165.24 20.9817 164.881 20.9577C163.969 20.9337 163.01 20.9097 162.002 20.8857V28.7291C162.002 30.0723 161.631 30.8639 160.887 31.1037L160.419 31.2476C160.227 31.2956 160.084 31.3196 159.988 31.3196C159.676 31.3196 159.412 31.1997 159.196 30.9598C159.004 30.7439 158.908 30.4561 158.908 30.0963V21.8572C158.908 21.4494 158.932 21.1016 158.98 20.8138H155.094V26.5704C155.094 27.9136 154.723 28.7051 153.979 28.945L153.511 29.0889C153.32 29.1369 153.176 29.1609 153.08 29.1609C152.768 29.1609 152.504 29.0409 152.288 28.8011C152.096 28.5852 152 28.2974 152 27.9376V21.8572C152 21.4494 152.024 21.1136 152.072 20.8498C150.009 20.8737 148.51 20.9097 147.575 20.9577C146.711 20.9817 146.28 20.7778 146.28 20.346ZM153.26 14.1577C152.3 14.1577 151.82 13.642 151.82 12.6106V6.92594C151.82 6.35028 151.952 5.91854 152.216 5.63071C152.48 5.34288 152.828 5.18697 153.26 5.16298L155.346 5.05504C156.977 4.93511 158.393 4.87515 159.592 4.87515C160.215 4.87515 160.635 5.01907 160.851 5.3069C161.067 5.57074 161.187 5.96651 161.211 6.4942C161.283 7.88538 161.319 9.00072 161.319 9.84023C161.319 10.3919 161.295 11.2434 161.247 12.3947C161.247 13.1143 161.115 13.57 160.851 13.7619C160.587 13.9538 160.191 14.0498 159.664 14.0498L153.26 14.1577ZM154.807 11.6392C155.262 11.6632 155.826 11.6632 156.498 11.6392C157.169 11.6152 157.745 11.5792 158.225 11.5312C158.225 9.87621 158.213 8.43705 158.189 7.21377C156.845 7.21377 155.718 7.27374 154.807 7.39367L154.771 9.58838L154.807 11.6392Z" fill="black"/>
</g>
<defs>
<clipPath id="clip0_1423_8086">
<rect width="166.665" height="34" fill="white"/>
</clipPath>
</defs>
</svg>
