<svg width="36" height="36" viewBox="0 0 36 36" fill="none" xmlns="http://www.w3.org/2000/svg">
<g clip-path="url(#clip0_1277_3628)">
<path fill-rule="evenodd" clip-rule="evenodd" d="M18 36C27.9411 36 36 27.9411 36 18C36 8.05888 27.9411 0 18 0C8.05887 0 0 8.05888 0 18C0 27.9411 8.05887 36 18 36ZM10.8041 12.5601C8.79989 14.5643 8.79992 17.8138 10.8041 19.818L17.4572 26.4712C17.7913 26.8052 18.3329 26.8052 18.6669 26.4712L25.32 19.818C27.3243 17.8138 27.3243 14.5643 25.32 12.5601C23.3158 10.5558 20.0663 10.5558 18.0621 12.5601C16.0578 10.5558 12.8083 10.5558 10.8041 12.5601Z" fill="black"/>
</g>
<defs>
<clipPath id="clip0_1277_3628">
<rect width="36" height="36" fill="white"/>
</clipPath>
</defs>
</svg>
