<svg width="32" height="23" viewBox="0 0 32 23" fill="none" xmlns="http://www.w3.org/2000/svg">
<path d="M31.1233 10.9148C32.2922 9.73771 32.2922 7.82934 31.1233 6.65228L26.0827 1.56752C24.9138 0.390472 23.0186 0.390472 21.8497 1.56752L18.0595 5.38866L24.0092 11.3889C25.3458 12.7348 27.3056 13.1948 29.0724 12.624C29.471 12.4952 29.8127 12.2391 30.1087 11.941L31.1233 10.9148Z" fill="black"/>
<path fill-rule="evenodd" clip-rule="evenodd" d="M1.8854 6.26079C2.14602 5.99835 2.56799 6.00914 2.89092 6.18946C3.8016 6.69798 4.97166 6.56304 5.74468 5.78464C6.5203 5.00363 6.65261 3.82014 6.14162 2.90182C5.96353 2.58178 5.95295 2.16493 6.21103 1.90506L7.22624 0.882789C8.39516 -0.294263 10.2903 -0.294263 11.4593 0.88279L23.44 12.9469C24.6536 14.169 26.459 14.5753 28.0739 13.9899L22.0419 20.064C18.5351 23.5951 12.8495 23.5951 9.34275 20.064L0.87669 11.539C-0.29223 10.3619 -0.29223 8.45357 0.87669 7.27652L1.8854 6.26079ZM10.6127 11.9652C10.3789 12.2007 9.99985 12.2007 9.76606 11.9652C9.53228 11.7298 9.53228 11.3482 9.76606 11.1127L11.036 9.834C11.2698 9.59859 11.6488 9.59859 11.8826 9.834C12.1164 10.0694 12.1164 10.4511 11.8826 10.6865L10.6127 11.9652ZM13.5953 8.11389C13.8291 8.3493 14.2081 8.3493 14.4419 8.11389L15.7118 6.83515C15.9456 6.59974 15.9456 6.21806 15.7118 5.98265C15.4781 5.74724 15.099 5.74724 14.8652 5.98265L13.5953 7.2614C13.3615 7.49681 13.3615 7.87848 13.5953 8.11389ZM6.78341 15.8166C6.54963 16.052 6.17059 16.052 5.93681 15.8166C5.70302 15.5812 5.70302 15.1995 5.93681 14.9641L7.20672 13.6853C7.4405 13.4499 7.81954 13.4499 8.05332 13.6853C8.28711 13.9208 8.28711 14.3024 8.05332 14.5378L6.78341 15.8166Z" fill="black"/>
</svg>
