<svg width="131" height="38" viewBox="0 0 131 38" fill="none" xmlns="http://www.w3.org/2000/svg">
<path d="M33.1233 18.0842C34.2922 16.9071 34.2922 14.9988 33.1233 13.8217L28.0827 8.73696C26.9138 7.55991 25.0186 7.55991 23.8497 8.73696L20.0595 12.5581L26.0092 18.5583C27.3458 19.9042 29.3056 20.3642 31.0724 19.7935C31.471 19.6647 31.8127 19.4085 32.1087 19.1104L33.1233 18.0842Z" fill="black"/>
<path fill-rule="evenodd" clip-rule="evenodd" d="M3.8854 13.4302C4.14602 13.1678 4.56799 13.1786 4.89092 13.3589C5.8016 13.8674 6.97166 13.7325 7.74468 12.9541C8.5203 12.1731 8.65261 10.9896 8.14162 10.0713C7.96353 9.75121 7.95295 9.33437 8.21103 9.07449L9.22624 8.05222C10.3952 6.87517 12.2903 6.87517 13.4593 8.05222L25.44 20.1163C26.6536 21.3384 28.459 21.7448 30.0739 21.1594L24.0419 27.2334C20.5351 30.7646 14.8495 30.7646 11.3428 27.2334L2.87669 18.7084C1.70777 17.5314 1.70777 15.623 2.87669 14.4459L3.8854 13.4302ZM12.6127 19.1347C12.3789 19.3701 11.9998 19.3701 11.7661 19.1347C11.5323 18.8993 11.5323 18.5176 11.7661 18.2822L13.036 17.0034C13.2698 16.768 13.6488 16.768 13.8826 17.0034C14.1164 17.2388 14.1164 17.6205 13.8826 17.8559L12.6127 19.1347ZM15.5953 15.2833C15.8291 15.5187 16.2081 15.5187 16.4419 15.2833L17.7118 14.0046C17.9456 13.7692 17.9456 13.3875 17.7118 13.1521C17.4781 12.9167 17.099 12.9167 16.8652 13.1521L15.5953 14.4308C15.3615 14.6662 15.3615 15.0479 15.5953 15.2833ZM8.78341 22.986C8.54963 23.2214 8.17059 23.2214 7.93681 22.986C7.70302 22.7506 7.70302 22.3689 7.93681 22.1335L9.20672 20.8548C9.4405 20.6194 9.81954 20.6194 10.0533 20.8548C10.2871 21.0902 10.2871 21.4719 10.0533 21.7073L8.78341 22.986Z" fill="black"/>
<path d="M52.7926 26.1169L52.8995 19.0067C52.4183 18.9889 51.9194 18.98 51.4026 18.98H50.7878V26.1971C50.7878 27.195 50.5116 27.7831 49.9592 27.9613L49.6117 28.0682C49.4691 28.1039 49.3622 28.1217 49.2909 28.1217C49.0593 28.1217 48.8632 28.0326 48.7029 27.8544C48.5603 27.694 48.489 27.4802 48.489 27.2129V11.6293C48.489 11.1303 48.5425 10.7561 48.6494 10.5066C48.7563 10.2571 48.9791 10.0522 49.3177 9.89181L49.6651 9.73143C49.8077 9.66015 49.9592 9.62451 50.1196 9.62451C50.3512 9.62451 50.5205 9.72252 50.6274 9.91854C50.7343 10.0967 50.7878 10.3284 50.7878 10.6135V17.0822H52.9529L53.0331 12.2708C53.0509 11.7718 53.1133 11.4065 53.2202 11.1749C53.3272 10.9254 53.5499 10.7204 53.8885 10.5601L54.236 10.3997C54.3785 10.3284 54.5211 10.2928 54.6637 10.2928C54.8953 10.2928 55.0646 10.3908 55.1715 10.5868C55.2784 10.7828 55.3319 11.0234 55.3319 11.3085L55.0913 25.1546C55.0557 26.1347 54.7706 26.7139 54.236 26.8921L53.8885 26.999C53.7459 27.0347 53.6479 27.0525 53.5945 27.0525C53.3628 27.0525 53.1668 26.9723 53.0064 26.8119C52.8638 26.6337 52.7926 26.402 52.7926 26.1169ZM41.3788 21.0115C40.5769 21.0115 39.98 20.8422 39.5879 20.5036C39.2137 20.165 39.0266 19.577 39.0266 18.7394L38.9999 17.697C38.9999 17.5544 39.0177 17.2158 39.0533 16.6812C39.0533 16.1823 39.1068 15.8081 39.2137 15.5586C39.3206 15.3091 39.5434 15.1042 39.882 14.9438L40.2295 14.7834C40.372 14.7121 40.5235 14.6765 40.6839 14.6765C40.9155 14.6765 41.0848 14.7745 41.1917 14.9705C41.3165 15.1487 41.3699 15.3804 41.3521 15.6655L41.2719 18.285C41.2541 18.6949 41.2897 18.9533 41.3788 19.0602C41.4679 19.1493 41.6996 19.1939 42.0738 19.1939C43.642 19.1939 44.9161 19.1493 45.8962 19.0602C46.1457 19.0246 46.3506 19.0602 46.511 19.1671C46.6714 19.2562 46.7516 19.3899 46.7516 19.5681C46.7516 19.6215 46.7338 19.7017 46.6981 19.8086L46.6179 20.0492C46.5645 20.2274 46.4041 20.3967 46.1368 20.5571C45.8873 20.7175 45.5487 20.8155 45.121 20.8511C43.8736 20.9759 42.8846 21.0382 42.154 21.0382L41.3788 21.0115Z" fill="black"/>
<path d="M69.3589 23.1232V9.78489C69.3589 9.28593 69.4124 8.91171 69.5193 8.66223C69.6262 8.41275 69.8489 8.20782 70.1875 8.04744L70.535 7.88706C70.6776 7.81578 70.829 7.78014 70.9894 7.78014C71.2211 7.78014 71.3904 7.87815 71.4973 8.07417C71.6042 8.25237 71.6577 8.48403 71.6577 8.76915V13.7944C72.8694 13.7944 73.6535 13.8033 74.0099 13.8211C74.3841 13.8389 74.6782 13.8924 74.892 13.9815C75.1237 14.0528 75.1949 14.231 75.1058 14.5161L75.0257 14.8101C74.9722 15.0418 74.8385 15.2111 74.6247 15.318C74.4109 15.4071 74.1792 15.4517 73.9297 15.4517H71.6577V22.1074C71.6577 23.1053 71.3815 23.6934 70.829 23.8716L70.4816 23.9785C70.339 24.0142 70.2321 24.032 70.1608 24.032C69.9291 24.032 69.7331 23.9518 69.5727 23.7914C69.4302 23.6132 69.3589 23.3905 69.3589 23.1232ZM58.6402 16.1466C58.6402 14.9883 58.9164 14.0617 59.4688 13.3667C59.9499 12.743 60.7073 12.3599 61.7408 12.2173C61.7943 12.0926 61.8567 12.0124 61.928 11.9768C62.0349 11.9233 62.1685 11.8966 62.3289 11.8966C63.113 11.8966 63.7723 12.2262 64.3069 12.8856C64.8593 13.5271 65.1356 14.3023 65.1356 15.2111C65.1356 16.5119 64.8415 17.5099 64.2535 18.2048C63.6832 18.8998 62.81 19.2473 61.6339 19.2473C60.7786 19.2473 60.0658 18.9533 59.4955 18.3652C58.9253 17.7772 58.6402 17.0376 58.6402 16.1466ZM66.2315 29.3245C65.6256 29.3067 65.189 29.2176 64.9217 29.0572C64.6544 28.9147 64.5208 28.5761 64.5208 28.0415C64.5208 27.3109 64.5653 26.4288 64.6544 25.3952C64.7079 24.7537 64.797 24.3171 64.9217 24.0854C65.0465 23.836 65.2959 23.6756 65.6702 23.6043L66.1513 23.4974C66.2048 23.4796 66.2849 23.4707 66.3919 23.4707C66.8552 23.4707 67.0601 23.8538 67.0067 24.62L66.8195 27.1327C66.8017 27.4178 66.9443 27.5603 67.2472 27.5603C67.9422 27.5603 68.9847 27.5425 70.3746 27.5069C71.7646 27.4712 72.7714 27.4267 73.3951 27.3732C73.6446 27.3376 73.8495 27.3643 74.0099 27.4534C74.1703 27.5603 74.2505 27.7029 74.2505 27.8811C74.2505 27.9346 74.2327 28.0148 74.197 28.1217L74.1168 28.3622C74.0634 28.5404 73.903 28.7097 73.6357 28.8701C73.3862 29.0305 73.0476 29.1285 72.62 29.1641C71.622 29.2889 69.8846 29.3513 67.4076 29.3513C66.7839 29.3513 66.3919 29.3423 66.2315 29.3245ZM61.8745 13.7944C61.7676 13.7944 61.6963 13.7944 61.6607 13.7944C61.3755 13.83 61.1261 14.0528 60.9122 14.4626C60.6984 14.8725 60.5915 15.3536 60.5915 15.9061C60.5915 16.405 60.7162 16.7971 60.9657 17.0822C61.233 17.3673 61.5448 17.5099 61.9012 17.5099C62.7388 17.5099 63.1575 16.8594 63.1575 15.5586C63.1575 15.0953 63.0863 14.7389 62.9437 14.4894C62.819 14.2399 62.6675 14.0706 62.4893 13.9815C62.3645 13.928 62.2042 13.8568 62.0081 13.7677C61.9725 13.7855 61.928 13.7944 61.8745 13.7944Z" fill="black"/>
<path d="M89.6852 27.8544V11.0412C89.6852 10.5422 89.7386 10.168 89.8456 9.91854C89.9525 9.66906 90.1752 9.46413 90.5138 9.30375L90.8613 9.14337C91.0039 9.07209 91.1553 9.03645 91.3157 9.03645C91.5474 9.03645 91.7167 9.13446 91.8236 9.33048C91.9305 9.50868 91.984 9.74034 91.984 10.0255V26.8386C91.984 27.8366 91.7077 28.4246 91.1553 28.6028L90.8078 28.7097C90.6653 28.7454 90.5584 28.7632 90.4871 28.7632C90.2554 28.7632 90.0594 28.6741 89.899 28.4959C89.7565 28.3355 89.6852 28.1217 89.6852 27.8544ZM79.501 16.2001C79.501 14.2934 80.5346 13.1885 82.6017 12.8856C82.6195 12.8678 82.6374 12.841 82.6552 12.8054C82.7443 12.5737 82.8334 12.4312 82.9225 12.3777C83.0294 12.3242 83.1631 12.2975 83.3234 12.2975C83.7868 12.2975 84.2323 12.4668 84.6599 12.8054C85.1054 13.1261 85.4618 13.5806 85.7291 14.1686C85.9964 14.7389 86.1301 15.3715 86.1301 16.0664C86.1301 17.0109 85.845 17.7772 85.2747 18.3652C84.7045 18.9355 83.8669 19.2206 82.7621 19.2206C81.7642 19.2206 80.9712 18.9355 80.3831 18.3652C79.7951 17.795 79.501 17.0733 79.501 16.2001ZM77.0419 23.7112C77.0419 23.5865 77.0864 23.4528 77.1755 23.3103L77.3626 22.9895C77.5052 22.7579 77.6656 22.6064 77.8438 22.5351C78.022 22.4638 78.2626 22.4193 78.5655 22.4015C79.4387 22.348 80.7663 22.3213 82.5483 22.3213C84.4194 22.3213 86.0232 22.348 87.3597 22.4015C87.7161 22.4193 87.9923 22.4727 88.1883 22.5618C88.4021 22.6331 88.4823 22.8113 88.4289 23.0964L88.3754 23.4172C88.3219 23.6845 88.1616 23.8805 87.8943 24.0053C87.6448 24.1122 87.3864 24.1656 87.1191 24.1656C86.1212 24.13 84.3926 24.1122 81.9335 24.1122C79.7773 24.1122 78.4675 24.13 78.0042 24.1656C77.3626 24.1835 77.0419 24.032 77.0419 23.7112ZM83.1631 14.329C83.0918 14.4003 82.9938 14.4448 82.869 14.4626C82.7621 14.4626 82.6908 14.4626 82.6552 14.4626C82.3344 14.5161 82.0493 14.6676 81.7998 14.9171C81.5682 15.1487 81.4523 15.4962 81.4523 15.9595C81.4523 16.405 81.5682 16.7703 81.7998 17.0555C82.0493 17.3406 82.3701 17.4831 82.7621 17.4831C83.1541 17.4831 83.4838 17.3851 83.7511 17.1891C84.0184 16.9753 84.1521 16.6278 84.1521 16.1466C84.1521 15.2913 83.8402 14.6765 83.2165 14.3023L83.1631 14.329Z" fill="black"/>
<path d="M102.828 13.634C102.828 13.5449 102.864 13.4113 102.935 13.2331L103.015 13.046C103.158 12.8321 103.309 12.6896 103.469 12.6183C103.648 12.547 103.897 12.4935 104.218 12.4579C104.61 12.4223 105.243 12.4044 106.116 12.4044C106.722 12.4044 107.345 12.4133 107.987 12.4312V9.7047C107.987 9.20574 108.04 8.83152 108.147 8.58204C108.254 8.33256 108.477 8.12763 108.815 7.96725L109.163 7.80687C109.306 7.73559 109.457 7.69995 109.617 7.69995C109.849 7.69995 110.018 7.79796 110.125 7.99398C110.232 8.17218 110.286 8.40384 110.286 8.68896V22.0005C110.286 22.9984 110.009 23.5865 109.457 23.7647L109.11 23.8716C108.967 23.9072 108.86 23.9251 108.789 23.9251C108.557 23.9251 108.361 23.8449 108.201 23.6845C108.058 23.5063 107.987 23.2835 107.987 23.0162V18.3385C107.666 18.3385 107.417 18.3296 107.238 18.3118L105.822 18.285L104.619 18.3118C104.387 18.3296 104.058 18.3385 103.63 18.3385C103.095 18.3385 102.828 18.187 102.828 17.8841C102.828 17.795 102.864 17.6613 102.935 17.4831L103.015 17.296C103.158 17.0822 103.309 16.9396 103.469 16.8683C103.648 16.7971 103.897 16.7436 104.218 16.708C104.61 16.6723 105.243 16.6545 106.116 16.6545C106.722 16.6545 107.345 16.6634 107.987 16.6812V14.0884C107.666 14.0884 107.417 14.0795 107.238 14.0617L105.822 14.035L104.619 14.0617C104.387 14.0795 104.058 14.0884 103.63 14.0884C103.095 14.0884 102.828 13.937 102.828 13.634ZM95.2634 16.5476C95.2634 15.2824 95.5841 14.2132 96.2257 13.34C96.7603 12.5915 97.5176 12.1371 98.4977 11.9768C98.5155 11.9411 98.5334 11.9055 98.5512 11.8698C98.6403 11.6382 98.7294 11.4956 98.8185 11.4422C98.9254 11.3887 99.059 11.362 99.2194 11.362C99.9857 11.362 100.6 11.7184 101.064 12.4312C101.527 13.144 101.759 14.0261 101.759 15.0774C101.759 16.503 101.42 17.6435 100.743 18.4989C100.084 19.3542 99.166 19.7819 97.9899 19.7819C97.1523 19.7819 96.4841 19.4879 95.9851 18.8998C95.504 18.2939 95.2634 17.5099 95.2634 16.5476ZM104.859 29.3245C104.254 29.3067 103.817 29.2176 103.55 29.0572C103.282 28.9147 103.149 28.5761 103.149 28.0415C103.149 27.3109 103.193 26.4288 103.282 25.3952C103.336 24.7537 103.425 24.3171 103.55 24.0854C103.674 23.836 103.924 23.6756 104.298 23.6043L104.779 23.4974C104.833 23.4796 104.913 23.4707 105.02 23.4707C105.483 23.4707 105.688 23.8538 105.635 24.62L105.448 27.1327C105.43 27.4178 105.572 27.5603 105.875 27.5603C106.392 27.5603 107.114 27.5425 108.04 27.5069C108.985 27.4712 109.778 27.4267 110.419 27.3732C110.669 27.3376 110.874 27.3643 111.034 27.4534C111.194 27.5603 111.275 27.7029 111.275 27.8811C111.275 27.9346 111.257 28.0148 111.221 28.1217L111.141 28.3622C111.088 28.5404 110.927 28.7097 110.66 28.8701C110.41 29.0305 110.072 29.1285 109.644 29.1641C108.646 29.2889 107.363 29.3513 105.795 29.3513C105.332 29.3513 105.02 29.3423 104.859 29.3245ZM99.059 13.3934C98.9878 13.4647 98.8898 13.5093 98.765 13.5271C98.6581 13.5271 98.5868 13.5271 98.5512 13.5271C98.2482 13.5806 97.9453 13.8389 97.6424 14.3023C97.3572 14.7656 97.2147 15.3447 97.2147 16.0397C97.2147 16.5921 97.3038 17.0644 97.482 17.4564C97.678 17.8484 97.9364 18.0445 98.2572 18.0445C98.667 18.0445 99.0234 17.8306 99.3263 17.4029C99.6293 16.9753 99.7808 16.3159 99.7808 15.4249C99.7808 14.8369 99.7362 14.3914 99.6471 14.0884C99.558 13.7855 99.4333 13.5806 99.2729 13.4736C99.2194 13.438 99.166 13.4024 99.1125 13.3667L99.059 13.3934Z" fill="black"/>
<path d="M113.378 21.0115C113.378 20.8868 113.423 20.7531 113.512 20.6105L113.699 20.2898C113.823 20.0759 113.966 19.9423 114.126 19.8888C114.287 19.8176 114.545 19.7552 114.902 19.7017C115.757 19.5948 117.352 19.5413 119.686 19.5413C122.021 19.5413 124.605 19.5948 127.438 19.7017C127.794 19.7195 128.071 19.773 128.267 19.8621C128.48 19.9334 128.561 20.1116 128.507 20.3967L128.454 20.7175C128.4 20.9848 128.24 21.1808 127.973 21.3055C127.723 21.4303 127.465 21.4837 127.197 21.4659C126.52 21.4481 125.807 21.4303 125.059 21.4124V27.2396C125.059 28.2375 124.783 28.8256 124.23 29.0038L123.883 29.1107C123.74 29.1463 123.633 29.1641 123.562 29.1641C123.33 29.1641 123.134 29.075 122.974 28.8968C122.831 28.7365 122.76 28.5226 122.76 28.2553V22.1342C122.76 21.8312 122.778 21.5728 122.814 21.359H119.927V25.6358C119.927 26.6337 119.651 27.2218 119.098 27.4L118.751 27.5069C118.608 27.5425 118.501 27.5603 118.43 27.5603C118.198 27.5603 118.002 27.4712 117.842 27.293C117.699 27.1327 117.628 26.9188 117.628 26.6515V22.1342C117.628 21.8312 117.646 21.5817 117.682 21.3857C116.149 21.4035 115.035 21.4303 114.34 21.4659C113.699 21.4837 113.378 21.3323 113.378 21.0115ZM118.564 16.4139C117.851 16.4139 117.494 16.0308 117.494 15.2645V11.0412C117.494 10.6135 117.592 10.2928 117.788 10.0789C117.984 9.86508 118.243 9.74925 118.564 9.73143L120.114 9.65124C121.326 9.56214 122.377 9.51759 123.268 9.51759C123.731 9.51759 124.043 9.62451 124.204 9.83835C124.364 10.0344 124.453 10.3284 124.471 10.7204C124.524 11.754 124.551 12.5826 124.551 13.2063C124.551 13.6162 124.533 14.2488 124.498 15.1042C124.498 15.6388 124.4 15.9773 124.204 16.1199C124.008 16.2625 123.714 16.3337 123.322 16.3337L118.564 16.4139ZM119.713 14.5428C120.052 14.5607 120.47 14.5607 120.969 14.5428C121.468 14.525 121.896 14.4983 122.252 14.4626C122.252 13.2331 122.243 12.1639 122.226 11.255C121.228 11.255 120.39 11.2996 119.713 11.3887L119.686 13.0192L119.713 14.5428Z" fill="black"/>
</svg>
