<svg width="36" height="36" viewBox="0 0 36 36" fill="none" xmlns="http://www.w3.org/2000/svg">
<path d="M6 29.3401C5.44772 29.3401 5 28.8923 5 28.3401V27.1C5 26.5478 5.44772 26.1 6 26.1H8.24V14.76C8.24 12.519 8.915 10.5345 10.265 8.80655C11.615 7.05155 13.37 5.90405 15.53 5.36405V4.23005C15.53 3.55505 15.7595 2.98805 16.2185 2.52905C16.7045 2.04305 17.285 1.80005 17.96 1.80005C18.635 1.80005 19.202 2.04305 19.661 2.52905C20.147 2.98805 20.39 3.55505 20.39 4.23005V5.36405C22.55 5.90405 24.305 7.05155 25.655 8.80655C27.005 10.5345 27.68 12.519 27.68 14.76V26.1H29.92C30.4723 26.1 30.92 26.5478 30.92 27.1V28.3401C30.92 28.8923 30.4723 29.3401 29.92 29.3401H6ZM17.96 34.2001C17.069 34.2001 16.2995 33.8895 15.6515 33.2686C15.0305 32.6206 14.72 31.8511 14.72 30.9601H21.2C21.2 31.8511 20.876 32.6206 20.228 33.2686C19.607 33.8895 18.851 34.2001 17.96 34.2001ZM11.48 26.1H24.44V14.76C24.44 12.978 23.8055 11.4525 22.5365 10.1835C21.2675 8.91455 19.742 8.28005 17.96 8.28005C16.178 8.28005 14.6525 8.91455 13.3835 10.1835C12.1145 11.4525 11.48 12.978 11.48 14.76V26.1Z" fill="black"/>
</svg>
