<svg width="36" height="36" viewBox="0 0 36 36" fill="none" xmlns="http://www.w3.org/2000/svg">
<path fill-rule="evenodd" clip-rule="evenodd" d="M3.58398 7.50294C3.58398 6.84683 4.11587 6.31494 4.77198 6.31494H30.908C31.5641 6.31494 32.096 6.84683 32.096 7.50294V11.5529C32.096 12.2091 31.5641 12.7409 30.908 12.7409H29.72V28.7969C29.72 29.4531 29.1881 29.9849 28.532 29.9849H7.14798C6.49187 29.9849 5.95998 29.4531 5.95998 28.7969V12.7409H4.77198C4.11587 12.7409 3.58398 12.2091 3.58398 11.5529V7.50294ZM8.33598 12.7409V27.6089H27.344V12.7409H8.33598ZM14.276 17.2049C14.276 16.5488 14.8079 16.0169 15.464 16.0169H20.216C20.8721 16.0169 21.404 16.5488 21.404 17.2049C21.404 17.8611 20.8721 18.3929 20.216 18.3929H15.464C14.8079 18.3929 14.276 17.8611 14.276 17.2049Z" fill="black"/>
</svg>
