<svg width="36" height="36" viewBox="0 0 36 36" fill="none" xmlns="http://www.w3.org/2000/svg">
<path d="M17.9029 30.8657C17.5728 30.8657 17.2898 30.7714 17.0541 30.5828C16.8183 30.3941 16.6414 30.1466 16.5235 29.84C16.0756 28.5197 15.5097 27.2818 14.8259 26.1265C14.1657 24.9711 13.2344 23.6154 12.0319 22.0592C10.8294 20.503 9.85089 19.0176 9.09639 17.6029C8.36546 16.1882 8 14.4788 8 12.4746C8 9.71599 8.95492 7.38174 10.8648 5.4719C12.7982 3.53849 15.1442 2.57178 17.9029 2.57178C20.6615 2.57178 22.9958 3.53849 24.9056 5.4719C26.839 7.38174 27.8057 9.71599 27.8057 12.4746C27.8057 14.6203 27.3931 16.4122 26.5679 17.8505C25.7662 19.2652 24.8349 20.6681 23.7739 22.0592C22.5006 23.7568 21.5339 25.1715 20.8737 26.3033C20.2371 27.4115 19.7066 28.5904 19.2822 29.84C19.1643 30.1701 18.9757 30.4295 18.7163 30.6181C18.4805 30.7832 18.2094 30.8657 17.9029 30.8657ZM17.9029 25.8082C18.3037 25.0065 18.7517 24.2166 19.2468 23.4385C19.7656 22.6605 20.5201 21.623 21.5103 20.3262C22.5242 19.0058 23.3495 17.7915 23.9861 16.6834C24.6463 15.5516 24.9764 14.1487 24.9764 12.4746C24.9764 10.5177 24.2808 8.85538 22.8897 7.48785C21.5221 6.09673 19.8599 5.40117 17.9029 5.40117C15.9459 5.40117 14.2718 6.09673 12.8807 7.48785C11.5132 8.85538 10.8294 10.5177 10.8294 12.4746C10.8294 14.1487 11.1477 15.5516 11.7843 16.6834C12.4445 17.7915 13.2815 19.0058 14.2954 20.3262C15.2857 21.623 16.0284 22.6605 16.5235 23.4385C17.0423 24.2166 17.502 25.0065 17.9029 25.8082ZM17.9029 16.0114C18.8932 16.0114 19.7302 15.6695 20.414 14.9857C21.0977 14.302 21.4396 13.4649 21.4396 12.4746C21.4396 11.4844 21.0977 10.6473 20.414 9.96356C19.7302 9.27979 18.8932 8.93791 17.9029 8.93791C16.9126 8.93791 16.0756 9.27979 15.3918 9.96356C14.708 10.6473 14.3661 11.4844 14.3661 12.4746C14.3661 13.4649 14.708 14.302 15.3918 14.9857C16.0756 15.6695 16.9126 16.0114 17.9029 16.0114Z" fill="black"/>
</svg>
