<svg width="36" height="36" viewBox="0 0 36 36" fill="none" xmlns="http://www.w3.org/2000/svg">
<path d="M8.6244 29.244C7.90269 29.244 7.28486 28.987 6.77092 28.4731C6.25697 27.9591 6 27.3413 6 26.6196V8.2488C6 7.52709 6.25697 6.90926 6.77092 6.39532C7.28486 5.88137 7.90269 5.6244 8.6244 5.6244H9.9366V4.3122C9.9366 3.58749 10.5241 3 11.2488 3C11.9735 3 12.561 3.58749 12.561 4.3122V5.6244H23.0586V4.3122C23.0586 3.58749 23.6461 3 24.3708 3C25.0955 3 25.683 3.58749 25.683 4.3122V5.6244H26.9952C27.7169 5.6244 28.3347 5.88137 28.8487 6.39532C29.3626 6.90926 29.6196 7.52709 29.6196 8.2488V26.6196C29.6196 27.3413 29.3626 27.9591 28.8487 28.4731C28.3347 28.987 27.7169 29.244 26.9952 29.244H8.6244ZM8.6244 26.6196H26.9952V13.4976H8.6244V26.6196Z" fill="black"/>
</svg>
