<svg width="36" height="36" viewBox="0 0 36 36" fill="none" xmlns="http://www.w3.org/2000/svg">
<g clip-path="url(#clip0_1277_3619)">
<path fill-rule="evenodd" clip-rule="evenodd" d="M18 36C27.9411 36 36 27.9411 36 18C36 8.05887 27.9411 0 18 0C8.05887 0 0 8.05887 0 18C0 27.9411 8.05887 36 18 36ZM10.2056 11.6787C9.58432 11.6787 9.08064 12.1824 9.08064 12.8037C9.08064 13.4251 9.58432 13.9287 10.2056 13.9287H10.2143C10.8356 13.9287 11.3393 13.4251 11.3393 12.8037C11.3393 12.1824 10.8356 11.6787 10.2143 11.6787H10.2056ZM14.5359 11.6787C13.9146 11.6787 13.4109 12.1824 13.4109 12.8037C13.4109 13.4251 13.9146 13.9287 14.5359 13.9287H25.7946C26.4159 13.9287 26.9196 13.4251 26.9196 12.8037C26.9196 12.1824 26.4159 11.6787 25.7946 11.6787H14.5359ZM10.2056 16.875C9.58432 16.875 9.08064 17.3787 9.08064 18C9.08064 18.6214 9.58432 19.125 10.2056 19.125H10.2143C10.8356 19.125 11.3393 18.6214 11.3393 18C11.3393 17.3787 10.8356 16.875 10.2143 16.875H10.2056ZM14.5359 16.875C13.9146 16.875 13.4109 17.3787 13.4109 18C13.4109 18.6214 13.9146 19.125 14.5359 19.125H25.7946C26.4159 19.125 26.9196 18.6214 26.9196 18C26.9196 17.3787 26.4159 16.875 25.7946 16.875H14.5359ZM10.2056 22.0714C9.58432 22.0714 9.08064 22.575 9.08064 23.1964C9.08064 23.8177 9.58432 24.3214 10.2056 24.3214H10.2143C10.8356 24.3214 11.3393 23.8177 11.3393 23.1964C11.3393 22.575 10.8356 22.0714 10.2143 22.0714H10.2056ZM14.5359 22.0714C13.9146 22.0714 13.4109 22.575 13.4109 23.1964C13.4109 23.8177 13.9146 24.3214 14.5359 24.3214H25.7946C26.4159 24.3214 26.9196 23.8177 26.9196 23.1964C26.9196 22.575 26.4159 22.0714 25.7946 22.0714H14.5359Z" fill="black"/>
</g>
<defs>
<clipPath id="clip0_1277_3619">
<rect width="36" height="36" fill="white"/>
</clipPath>
</defs>
</svg>
