<svg width="36" height="36" viewBox="0 0 36 36" fill="none" xmlns="http://www.w3.org/2000/svg">
<path fill-rule="evenodd" clip-rule="evenodd" d="M17.3295 3.08011C17.8121 2.70474 18.4879 2.70474 18.9706 3.08011L30.9991 12.4356C31.3246 12.6888 31.515 13.0782 31.515 13.4906V28.1921C31.515 29.2555 31.0926 30.2753 30.3407 31.0272C29.5888 31.7792 28.5689 32.2016 27.5055 32.2016H8.79453C7.73115 32.2016 6.71132 31.7792 5.95939 31.0272C5.20746 30.2753 4.78503 29.2555 4.78503 28.1921V13.4906C4.78503 13.0782 4.97545 12.6888 5.301 12.4356L17.3295 3.08011ZM15.477 29.5286H20.823V18.8366H15.477V29.5286ZM23.496 29.5286V17.5001C23.496 16.762 22.8977 16.1636 22.1595 16.1636H14.1405C13.4024 16.1636 12.804 16.762 12.804 17.5001V29.5286H8.79453C8.44007 29.5286 8.10013 29.3878 7.84949 29.1371C7.59884 28.8865 7.45803 28.5465 7.45803 28.1921V14.1442L18.15 5.82824L28.842 14.1442V28.1921C28.842 28.5465 28.7012 28.8865 28.4506 29.1371C28.1999 29.3878 27.86 29.5286 27.5055 29.5286H23.496Z" fill="black"/>
</svg>
