<svg width="36" height="36" viewBox="0 0 36 36" fill="none" xmlns="http://www.w3.org/2000/svg">
<path fill-rule="evenodd" clip-rule="evenodd" d="M17.9411 12.044C14.9749 12.044 12.5458 14.4731 12.5458 17.5C12.5458 20.5269 14.9749 22.956 17.9411 22.956C20.9073 22.956 23.3365 20.5269 23.3365 17.5C23.3365 14.4731 20.9073 12.044 17.9411 12.044ZM9.31582 15.8224C10.0934 11.7489 13.6492 8.65601 17.9411 8.65601C22.2339 8.65601 25.7903 11.7502 26.5669 15.8249C26.6497 15.8125 26.7344 15.806 26.8205 15.806H33.9C34.8356 15.806 35.594 16.5644 35.594 17.5C35.594 18.4356 34.8356 19.194 33.9 19.194H26.8205C26.7344 19.194 26.6497 19.1876 26.5669 19.1751C25.7903 23.2498 22.2339 26.344 17.9411 26.344C13.6492 26.344 10.0934 23.2511 9.31582 19.1776C9.23858 19.1884 9.15967 19.194 9.07945 19.194H2C1.06443 19.194 0.306 18.4356 0.306 17.5C0.306 16.5644 1.06443 15.806 2 15.806H9.07945C9.15967 15.806 9.23858 15.8116 9.31582 15.8224Z" fill="black"/>
</svg>
