<svg width="128" height="26" viewBox="0 0 128 26" fill="none" xmlns="http://www.w3.org/2000/svg">
<g clip-path="url(#clip0_1423_8093)">
<path d="M30.9645 12.5669C32.1275 11.412 32.1275 9.53945 30.9645 8.38451L25.9497 3.39526C24.7867 2.24032 22.9012 2.24031 21.7382 3.39526L17.9673 7.14462L23.8867 13.0321C25.2165 14.3528 27.1663 14.8041 28.924 14.2441C29.3206 14.1177 29.6606 13.8664 29.9551 13.5739L30.9645 12.5669Z" fill="black"/>
<path fill-rule="evenodd" clip-rule="evenodd" d="M1.87578 8.00036C2.13507 7.74286 2.55489 7.75344 2.87617 7.93037C3.7822 8.42935 4.94629 8.29694 5.71537 7.53316C6.48703 6.76682 6.61867 5.60556 6.11028 4.70449C5.93311 4.39046 5.92258 3.98144 6.17934 3.72645L7.18937 2.72338C8.35232 1.56844 10.2378 1.56844 11.4008 2.72339L23.3204 14.5608C24.5278 15.76 26.324 16.1587 27.9307 15.5843L21.9294 21.5443C18.4405 25.0091 12.784 25.0091 9.29509 21.5443L0.872217 13.1794C-0.290739 12.0245 -0.290739 10.152 0.872217 8.99701L1.87578 8.00036ZM10.5585 13.5977C10.3259 13.8287 9.94883 13.8287 9.71624 13.5977C9.48365 13.3667 9.48365 12.9922 9.71624 12.7612L10.9797 11.5065C11.2123 11.2755 11.5894 11.2755 11.822 11.5065C12.0545 11.7374 12.0545 12.112 11.822 12.3429L10.5585 13.5977ZM13.526 9.81866C13.7585 10.0497 14.1357 10.0497 14.3682 9.81866L15.6317 8.56394C15.8643 8.33295 15.8643 7.95844 15.6317 7.72745C15.3991 7.49646 15.022 7.49646 14.7894 7.72745L13.526 8.98218C13.2934 9.21317 13.2934 9.58767 13.526 9.81866ZM6.7488 17.3767C6.51621 17.6077 6.13911 17.6077 5.90652 17.3767C5.67393 17.1457 5.67393 16.7712 5.90652 16.5402L7.16995 15.2855C7.40254 15.0545 7.77964 15.0545 8.01223 15.2855C8.24482 15.5165 8.24482 15.891 8.01223 16.1219L6.7488 17.3767Z" fill="black"/>
<path d="M49.7479 20.8138L49.8579 13.4953C49.3627 13.4769 48.8491 13.4678 48.3172 13.4678H47.6844V20.8963C47.6844 21.9235 47.4001 22.5288 46.8314 22.7122L46.4738 22.8223C46.327 22.8589 46.217 22.8773 46.1436 22.8773C45.9052 22.8773 45.7034 22.7856 45.5383 22.6022C45.3916 22.4371 45.3182 22.217 45.3182 21.9418V5.90162C45.3182 5.38804 45.3732 5.00286 45.4833 4.74607C45.5934 4.48928 45.8226 4.27834 46.1711 4.11326L46.5288 3.94818C46.6755 3.87482 46.8314 3.83813 46.9965 3.83813C47.235 3.83813 47.4092 3.93901 47.5193 4.14078C47.6293 4.3242 47.6844 4.56265 47.6844 4.85612V11.5143H49.9129L49.9955 6.56194C50.0138 6.04836 50.078 5.67235 50.1881 5.4339C50.2981 5.17711 50.5274 4.96617 50.8759 4.80109L51.2336 4.63601C51.3803 4.56265 51.527 4.52596 51.6738 4.52596C51.9122 4.52596 52.0865 4.62684 52.1965 4.82861C52.3066 5.03037 52.3616 5.27799 52.3616 5.57146L52.114 19.8233C52.0773 20.8321 51.7838 21.4283 51.2336 21.6117L50.8759 21.7217C50.7292 21.7584 50.6283 21.7768 50.5732 21.7768C50.3348 21.7768 50.133 21.6942 49.968 21.5291C49.8212 21.3457 49.7479 21.1073 49.7479 20.8138ZM37.9997 15.5588C37.1743 15.5588 36.5598 15.3845 36.1563 15.036C35.7711 14.6875 35.5785 14.0822 35.5785 13.2201L35.551 12.1471C35.551 12.0004 35.5694 11.6519 35.6061 11.1016C35.6061 10.588 35.6611 10.2029 35.7711 9.94607C35.8812 9.68928 36.1105 9.47834 36.459 9.31326L36.8166 9.14818C36.9634 9.07482 37.1193 9.03813 37.2844 9.03813C37.5228 9.03813 37.6971 9.13901 37.8071 9.34078C37.9355 9.5242 37.9905 9.76265 37.9722 10.0561L37.8896 12.7524C37.8713 13.1743 37.908 13.4402 37.9997 13.5503C38.0914 13.642 38.3299 13.6879 38.715 13.6879C40.3292 13.6879 41.6406 13.642 42.6494 13.5503C42.9062 13.5136 43.1172 13.5503 43.2822 13.6604C43.4473 13.7521 43.5299 13.8896 43.5299 14.0731C43.5299 14.1281 43.5115 14.2106 43.4748 14.3207L43.3923 14.5683C43.3373 14.7517 43.1722 14.926 42.8971 15.091C42.6403 15.2561 42.2918 15.357 41.8516 15.3937C40.5676 15.5221 39.5496 15.5863 38.7976 15.5863L37.9997 15.5588Z" fill="black"/>
<path d="M66.7996 17.7323V4.00321C66.7996 3.48963 66.8546 3.10444 66.9647 2.84765C67.0747 2.59086 67.304 2.37993 67.6525 2.21485L68.0102 2.04977C68.1569 1.9764 68.3128 1.93972 68.4779 1.93972C68.7164 1.93972 68.8906 2.0406 69.0007 2.24236C69.1107 2.42579 69.1657 2.66423 69.1657 2.95771V8.13019C70.413 8.13019 71.2201 8.13937 71.5869 8.15771C71.9721 8.17605 72.2747 8.23108 72.4948 8.32279C72.7333 8.39616 72.8067 8.57958 72.7149 8.87305L72.6324 9.1757C72.5774 9.41415 72.4398 9.5884 72.2197 9.69845C71.9996 9.79016 71.7612 9.83601 71.5044 9.83601H69.1657V16.6868C69.1657 17.714 68.8814 18.3193 68.3128 18.5027L67.9552 18.6127C67.8084 18.6494 67.6984 18.6678 67.625 18.6678C67.3866 18.6678 67.1848 18.5852 67.0197 18.4201C66.873 18.2367 66.7996 18.0074 66.7996 17.7323ZM55.7668 10.5514C55.7668 9.35912 56.0511 8.40533 56.6197 7.68998C57.1149 7.04801 57.8945 6.65365 58.9583 6.50691C59.0134 6.37852 59.0776 6.29598 59.1509 6.25929C59.261 6.20427 59.3985 6.17675 59.5636 6.17675C60.3707 6.17675 61.0493 6.51608 61.5996 7.19474C62.1682 7.85506 62.4525 8.65295 62.4525 9.5884C62.4525 10.9274 62.1499 11.9545 61.5446 12.6699C60.9576 13.3852 60.0589 13.7429 58.8483 13.7429C57.9679 13.7429 57.2342 13.4402 56.6472 12.835C56.0603 12.2297 55.7668 11.4685 55.7668 10.5514ZM63.5806 24.1154C62.9569 24.097 62.5075 24.0053 62.2324 23.8402C61.9573 23.6935 61.8197 23.345 61.8197 22.7947C61.8197 22.0427 61.8656 21.1348 61.9573 20.0709C62.0123 19.4106 62.104 18.9612 62.2324 18.7228C62.3608 18.466 62.6176 18.3009 63.0028 18.2275L63.498 18.1175C63.553 18.0992 63.6356 18.09 63.7456 18.09C64.2225 18.09 64.4335 18.4843 64.3784 19.2731L64.1858 21.8593C64.1675 22.1528 64.3142 22.2995 64.6261 22.2995C65.3414 22.2995 66.4144 22.2812 67.8451 22.2445C69.2758 22.2078 70.3121 22.1619 70.9541 22.1069C71.2109 22.0702 71.4218 22.0977 71.5869 22.1895C71.752 22.2995 71.8345 22.4462 71.8345 22.6297C71.8345 22.6847 71.8162 22.7672 71.7795 22.8773L71.697 23.1249C71.6419 23.3083 71.4768 23.4826 71.2017 23.6477C70.9449 23.8127 70.5964 23.9136 70.1562 23.9503C69.1291 24.0787 67.3407 24.1429 64.7911 24.1429C64.1492 24.1429 63.7456 24.1337 63.5806 24.1154ZM59.0959 8.13019C58.9858 8.13019 58.9125 8.13019 58.8758 8.13019C58.5823 8.16688 58.3255 8.39616 58.1054 8.81802C57.8853 9.23989 57.7753 9.73513 57.7753 10.3037C57.7753 10.8173 57.9037 11.2208 58.1604 11.5143C58.4356 11.8078 58.7566 11.9545 59.1234 11.9545C59.9855 11.9545 60.4165 11.285 60.4165 9.94607C60.4165 9.46917 60.3432 9.10233 60.1964 8.84554C60.068 8.58875 59.9121 8.4145 59.7287 8.32279C59.6003 8.26776 59.4352 8.19439 59.2335 8.10268C59.1968 8.12102 59.1509 8.13019 59.0959 8.13019Z" fill="black"/>
<path d="M87.7215 22.6022V5.29633C87.7215 4.78275 87.7765 4.39757 87.8866 4.14078C87.9966 3.88399 88.2259 3.67305 88.5744 3.50797L88.9321 3.34289C89.0788 3.26952 89.2347 3.23284 89.3998 3.23284C89.6382 3.23284 89.8125 3.33372 89.9225 3.53549C90.0326 3.71891 90.0876 3.95735 90.0876 4.25083V21.5566C90.0876 22.5838 89.8033 23.1891 89.2347 23.3725L88.877 23.4826C88.7303 23.5193 88.6202 23.5376 88.5469 23.5376C88.3084 23.5376 88.1067 23.4459 87.9416 23.2625C87.7948 23.0974 87.7215 22.8773 87.7215 22.6022ZM77.2389 10.6064C77.2389 8.64377 78.3028 7.50656 80.4305 7.19474C80.4488 7.1764 80.4672 7.14889 80.4855 7.1122C80.5772 6.87376 80.6689 6.72702 80.7606 6.67199C80.8707 6.61697 81.0083 6.58945 81.1733 6.58945C81.6502 6.58945 82.1088 6.7637 82.549 7.1122C83.0075 7.44236 83.3744 7.91009 83.6495 8.51538C83.9247 9.10233 84.0622 9.75347 84.0622 10.4688C84.0622 11.441 83.7687 12.2297 83.1818 12.835C82.5948 13.4219 81.7328 13.7154 80.5956 13.7154C79.5684 13.7154 78.7522 13.4219 78.1469 12.835C77.5416 12.248 77.2389 11.5052 77.2389 10.6064ZM74.7077 18.3376C74.7077 18.2092 74.7536 18.0716 74.8453 17.9249L75.0379 17.5947C75.1846 17.3563 75.3497 17.2004 75.5331 17.127C75.7165 17.0537 75.9642 17.0078 76.276 16.9895C77.1747 16.9344 78.5412 16.9069 80.3754 16.9069C82.3014 16.9069 83.9522 16.9344 85.3278 16.9895C85.6947 17.0078 85.979 17.0628 86.1807 17.1545C86.4008 17.2279 86.4834 17.4113 86.4284 17.7048L86.3733 18.035C86.3183 18.3101 86.1532 18.5119 85.8781 18.6402C85.6213 18.7503 85.3553 18.8053 85.0802 18.8053C84.053 18.7686 82.2739 18.7503 79.7426 18.7503C77.5232 18.7503 76.1751 18.7686 75.6982 18.8053C75.0379 18.8237 74.7077 18.6678 74.7077 18.3376ZM81.0083 8.68046C80.9349 8.75383 80.834 8.79968 80.7056 8.81802C80.5956 8.81802 80.5222 8.81802 80.4855 8.81802C80.1553 8.87305 79.8619 9.02896 79.6051 9.28575C79.3666 9.5242 79.2474 9.88187 79.2474 10.3588C79.2474 10.8173 79.3666 11.1933 79.6051 11.4868C79.8619 11.7803 80.192 11.927 80.5956 11.927C80.9991 11.927 81.3384 11.8261 81.6135 11.6244C81.8887 11.4043 82.0262 11.0466 82.0262 10.5514C82.0262 9.67093 81.7053 9.03813 81.0633 8.65295L81.0083 8.68046Z" fill="black"/>
<path d="M101.249 7.96511C101.249 7.8734 101.286 7.73584 101.359 7.55242L101.442 7.35982C101.589 7.13972 101.745 6.99298 101.91 6.91961C102.093 6.84624 102.35 6.79122 102.68 6.75453C103.084 6.71785 103.735 6.69951 104.634 6.69951C105.257 6.69951 105.899 6.70868 106.559 6.72702V3.92067C106.559 3.40709 106.614 3.02191 106.725 2.76511C106.835 2.50832 107.064 2.29739 107.412 2.13231L107.77 1.96723C107.917 1.89386 108.073 1.85718 108.238 1.85718C108.476 1.85718 108.65 1.95806 108.76 2.15982C108.871 2.34325 108.926 2.58169 108.926 2.87517V16.5768C108.926 17.6039 108.641 18.2092 108.073 18.3926L107.715 18.5027C107.568 18.5394 107.458 18.5577 107.385 18.5577C107.146 18.5577 106.945 18.4752 106.78 18.3101C106.633 18.1267 106.559 17.8974 106.559 17.6223V12.8074C106.229 12.8074 105.972 12.7983 105.789 12.7799L104.331 12.7524L103.093 12.7799C102.854 12.7983 102.515 12.8074 102.075 12.8074C101.525 12.8074 101.249 12.6515 101.249 12.3397C101.249 12.248 101.286 12.1104 101.359 11.927L101.442 11.7344C101.589 11.5143 101.745 11.3676 101.91 11.2942C102.093 11.2208 102.35 11.1658 102.68 11.1291C103.084 11.0925 103.735 11.0741 104.634 11.0741C105.257 11.0741 105.899 11.0833 106.559 11.1016V8.43284C106.229 8.43284 105.972 8.42367 105.789 8.40533L104.331 8.37781L103.093 8.40533C102.854 8.42367 102.515 8.43284 102.075 8.43284C101.525 8.43284 101.249 8.27693 101.249 7.96511ZM93.4631 10.9641C93.4631 9.66176 93.7933 8.56123 94.4536 7.66247C95.0039 6.8921 95.7834 6.42437 96.7922 6.25929C96.8106 6.22261 96.8289 6.18593 96.8473 6.14924C96.939 5.91079 97.0307 5.76406 97.1224 5.70903C97.2325 5.654 97.37 5.62649 97.5351 5.62649C98.3238 5.62649 98.9566 5.99333 99.4335 6.72702C99.9104 7.46071 100.149 8.36864 100.149 9.45083C100.149 10.9182 99.8004 12.0921 99.1034 12.9725C98.4247 13.8529 97.4801 14.2932 96.2695 14.2932C95.4074 14.2932 94.7196 13.9905 94.206 13.3852C93.7108 12.7616 93.4631 11.9545 93.4631 10.9641ZM103.34 24.1154C102.717 24.097 102.267 24.0053 101.992 23.8402C101.717 23.6935 101.58 23.345 101.58 22.7947C101.58 22.0427 101.625 21.1348 101.717 20.0709C101.772 19.4106 101.864 18.9612 101.992 18.7228C102.121 18.466 102.377 18.3009 102.763 18.2275L103.258 18.1175C103.313 18.0992 103.395 18.09 103.505 18.09C103.982 18.09 104.193 18.4843 104.138 19.2731L103.946 21.8593C103.927 22.1528 104.074 22.2995 104.386 22.2995C104.918 22.2995 105.661 22.2812 106.614 22.2445C107.587 22.2078 108.403 22.1619 109.063 22.1069C109.32 22.0702 109.531 22.0977 109.696 22.1895C109.861 22.2995 109.944 22.4462 109.944 22.6297C109.944 22.6847 109.925 22.7672 109.889 22.8773L109.806 23.1249C109.751 23.3083 109.586 23.4826 109.311 23.6477C109.054 23.8127 108.705 23.9136 108.265 23.9503C107.238 24.0787 105.917 24.1429 104.303 24.1429C103.826 24.1429 103.505 24.1337 103.34 24.1154ZM97.37 7.7175C97.2966 7.79086 97.1958 7.83672 97.0674 7.85506C96.9573 7.85506 96.8839 7.85506 96.8473 7.85506C96.5354 7.91009 96.2236 8.17605 95.9118 8.65295C95.6183 9.12984 95.4716 9.72596 95.4716 10.4413C95.4716 11.0099 95.5633 11.496 95.7467 11.8995C95.9485 12.303 96.2145 12.5048 96.5446 12.5048C96.9665 12.5048 97.3333 12.2847 97.6451 11.8445C97.957 11.4043 98.1129 10.7256 98.1129 9.8085C98.1129 9.20321 98.067 8.74466 97.9753 8.43284C97.8836 8.12102 97.7552 7.91009 97.5901 7.80003C97.5351 7.76335 97.4801 7.72667 97.425 7.68998L97.37 7.7175Z" fill="black"/>
<path d="M112.109 15.5588C112.109 15.4304 112.154 15.2928 112.246 15.1461L112.439 14.8159C112.567 14.5958 112.714 14.4582 112.879 14.4032C113.044 14.3298 113.31 14.2656 113.677 14.2106C114.557 14.1006 116.199 14.0455 118.602 14.0455C121.004 14.0455 123.664 14.1006 126.58 14.2106C126.947 14.229 127.232 14.284 127.433 14.3757C127.653 14.4491 127.736 14.6325 127.681 14.926L127.626 15.2561C127.571 15.5313 127.406 15.733 127.131 15.8614C126.874 15.9898 126.608 16.0448 126.333 16.0265C125.636 16.0081 124.902 15.9898 124.132 15.9715V21.9693C124.132 22.9965 123.847 23.6018 123.279 23.7852L122.921 23.8953C122.774 23.932 122.664 23.9503 122.591 23.9503C122.353 23.9503 122.151 23.8586 121.986 23.6752C121.839 23.5101 121.766 23.29 121.766 23.0148V16.7143C121.766 16.4025 121.784 16.1365 121.821 15.9164H118.849V20.3186C118.849 21.3457 118.565 21.951 117.996 22.1344L117.639 22.2445C117.492 22.2812 117.382 22.2995 117.309 22.2995C117.07 22.2995 116.868 22.2078 116.703 22.0244C116.556 21.8593 116.483 21.6392 116.483 21.3641V16.7143C116.483 16.4025 116.501 16.1457 116.538 15.944C114.961 15.9623 113.814 15.9898 113.099 16.0265C112.439 16.0448 112.109 15.8889 112.109 15.5588ZM117.446 10.8265C116.712 10.8265 116.346 10.4321 116.346 9.64342V5.29633C116.346 4.85612 116.446 4.52596 116.648 4.30586C116.85 4.08575 117.116 3.96653 117.446 3.94818L119.042 3.86564C120.289 3.77393 121.371 3.72808 122.288 3.72808C122.765 3.72808 123.086 3.83813 123.251 4.05824C123.416 4.26 123.508 4.56265 123.526 4.96617C123.582 6.03002 123.609 6.88293 123.609 7.5249C123.609 7.94677 123.591 8.59792 123.554 9.47834C123.554 10.0286 123.453 10.3771 123.251 10.5238C123.05 10.6706 122.747 10.744 122.343 10.744L117.446 10.8265ZM118.629 8.90056C118.978 8.91891 119.409 8.91891 119.922 8.90056C120.436 8.88222 120.876 8.85471 121.243 8.81802C121.243 7.55242 121.234 6.45189 121.215 5.51644C120.188 5.51644 119.326 5.56229 118.629 5.654L118.602 7.33231L118.629 8.90056Z" fill="black"/>
</g>
<defs>
<clipPath id="clip0_1423_8093">
<rect width="127.698" height="26" fill="white"/>
</clipPath>
</defs>
</svg>
