<svg width="31" height="29" viewBox="0 0 31 29" fill="none" xmlns="http://www.w3.org/2000/svg">
<path d="M14.7989 0.927052C15.0983 0.0057416 16.4017 0.00573993 16.7011 0.927051L19.5667 9.74671C19.7006 10.1587 20.0846 10.4377 20.5178 10.4377H29.7913C30.7601 10.4377 31.1628 11.6773 30.3791 12.2467L22.8767 17.6976C22.5262 17.9522 22.3795 18.4036 22.5134 18.8156L25.3791 27.6353C25.6784 28.5566 24.624 29.3227 23.8402 28.7533L16.3378 23.3024C15.9873 23.0478 15.5127 23.0478 15.1622 23.3024L7.65976 28.7533C6.87605 29.3227 5.82157 28.5566 6.12092 27.6353L8.9866 18.8156C9.12048 18.4036 8.97382 17.9522 8.62333 17.6976L1.12088 12.2467C0.337169 11.6773 0.739944 10.4377 1.70867 10.4377H10.9822C11.4154 10.4377 11.7994 10.1587 11.9333 9.74671L14.7989 0.927052Z" fill="#E7E7E7"/>
</svg>
