<svg width="36" height="36" viewBox="0 0 36 36" fill="none" xmlns="http://www.w3.org/2000/svg">
<path fill-rule="evenodd" clip-rule="evenodd" d="M18 30C24.6274 30 30 24.6274 30 18C30 11.3726 24.6274 6 18 6C11.3726 6 6.00003 11.3726 6.00003 18C6.00003 24.6274 11.3726 30 18 30ZM13.5456 12.4545C13.2442 12.1532 12.7557 12.1532 12.4544 12.4545C12.153 12.7558 12.153 13.2444 12.4544 13.5457L16.9088 18.0002L12.4544 22.4546C12.153 22.7559 12.153 23.2445 12.4544 23.5458C12.7557 23.8471 13.2442 23.8471 13.5456 23.5458L18 19.0914L22.4544 23.5457C22.7557 23.8471 23.2442 23.8471 23.5456 23.5457C23.8469 23.2444 23.8469 22.7558 23.5456 22.4545L19.0912 18.0002L23.5456 13.5458C23.8469 13.2445 23.8469 12.7559 23.5456 12.4546C23.2442 12.1532 22.7557 12.1532 22.4544 12.4546L18 16.9089L13.5456 12.4545Z" fill="black"/>
</svg>
