<svg width="35" height="28" viewBox="0 0 35 28" fill="none" xmlns="http://www.w3.org/2000/svg">
<path d="M33.3464 13.5336C34.5988 12.2898 34.5988 10.2732 33.3464 9.02943L27.9458 3.65639C26.6934 2.41261 24.6628 2.41261 23.4104 3.65639L19.3494 7.69417L25.7241 14.0346C27.1562 15.4568 29.256 15.9428 31.149 15.3397C31.5761 15.2037 31.9421 14.933 32.2593 14.618L33.3464 13.5336Z" fill="black"/>
<path fill-rule="evenodd" clip-rule="evenodd" d="M2.02007 8.61574C2.29931 8.33843 2.75142 8.34982 3.09741 8.54036C4.07314 9.07772 5.32678 8.93513 6.15502 8.11259C6.98603 7.28731 7.12779 6.03672 6.5803 5.06633C6.3895 4.72815 6.37816 4.28767 6.65468 4.01306L7.7424 2.93284C8.99481 1.68905 11.0254 1.68905 12.2778 2.93284L25.1143 15.6809C26.4146 16.9723 28.349 17.4017 30.0792 16.7831L23.6163 23.2015C19.859 26.9328 13.7673 26.9328 10.0101 23.2015L0.93931 14.1932C-0.313103 12.9494 -0.313103 10.9328 0.93931 9.68905L2.02007 8.61574ZM11.3707 14.6436C11.1202 14.8924 10.7141 14.8924 10.4636 14.6436C10.2132 14.3948 10.2132 13.9915 10.4636 13.7428L11.8243 12.3915C12.0747 12.1428 12.4809 12.1428 12.7313 12.3915C12.9818 12.6403 12.9818 13.0436 12.7313 13.2924L11.3707 14.6436ZM14.5664 10.5739C14.8169 10.8227 15.223 10.8227 15.4735 10.5739L16.8341 9.22266C17.0846 8.97391 17.0846 8.57059 16.8341 8.32183C16.5836 8.07308 16.1775 8.07308 15.927 8.32183L14.5664 9.67308C14.3159 9.92183 14.3159 10.3251 14.5664 10.5739ZM7.26794 18.7133C7.01746 18.9621 6.61135 18.9621 6.36086 18.7133C6.11038 18.4645 6.11038 18.0612 6.36086 17.8125L7.72148 16.4612C7.97196 16.2125 8.37808 16.2125 8.62856 16.4612C8.87904 16.71 8.87904 17.1133 8.62856 17.3621L7.26794 18.7133Z" fill="black"/>
</svg>
