<svg width="36" height="36" viewBox="0 0 36 36" fill="none" xmlns="http://www.w3.org/2000/svg">
<path d="M30.0511 30.0511C29.4913 30.6109 28.5836 30.6109 28.0238 30.0511L19.9148 21.9421C19.1908 22.5213 18.3582 22.9798 17.4169 23.3177C16.4757 23.6556 15.4741 23.8245 14.4123 23.8245C11.7816 23.8245 9.55529 22.9134 7.73317 21.0913C5.91106 19.2692 5 17.0429 5 14.4123C5 11.7816 5.91106 9.55529 7.73317 7.73317C9.55529 5.91106 11.7816 5 14.4123 5C17.0429 5 19.2692 5.91106 21.0913 7.73317C22.9134 9.55529 23.8245 11.7816 23.8245 14.4123C23.8245 15.4741 23.6556 16.4757 23.3177 17.4169C22.9798 18.3582 22.5213 19.1908 21.9421 19.9148L30.0511 28.0238C30.6109 28.5836 30.6109 29.4913 30.0511 30.0511ZM14.4123 20.9284C16.2223 20.9284 17.7608 20.2949 19.0279 19.0279C20.2949 17.7608 20.9284 16.2223 20.9284 14.4123C20.9284 12.6022 20.2949 11.0637 19.0279 9.79663C17.7608 8.52959 16.2223 7.89608 14.4123 7.89608C12.6022 7.89608 11.0637 8.52959 9.79663 9.79663C8.52959 11.0637 7.89608 12.6022 7.89608 14.4123C7.89608 16.2223 8.52959 17.7608 9.79663 19.0279C11.0637 20.2949 12.6022 20.9284 14.4123 20.9284Z" fill="black"/>
</svg>
