<svg width="36" height="36" viewBox="0 0 36 36" fill="none" xmlns="http://www.w3.org/2000/svg">
<path d="M9.03334 25.4357C10.2726 24.488 11.6577 23.7408 13.1886 23.194C14.7195 22.6473 16.3233 22.3739 18 22.3739C19.6767 22.3739 21.2805 22.6473 22.8114 23.194C24.3423 23.7408 25.7274 24.488 26.9667 25.4357C27.8172 24.4394 28.4794 23.3095 28.9533 22.0459C29.4271 20.7823 29.664 19.4336 29.664 17.9999C29.664 14.768 28.528 12.016 26.256 9.744C23.9839 7.47195 21.2319 6.33592 18 6.33592C14.7681 6.33592 12.0162 7.47195 9.74412 9.744C7.47207 12.016 6.33604 14.768 6.33604 17.9999C6.33604 19.4336 6.57297 20.7823 7.04682 22.0459C7.52067 23.3095 8.18284 24.4394 9.03334 25.4357ZM18 19.4579C16.5663 19.4579 15.3574 18.9658 14.3733 17.9817C13.3891 16.9975 12.897 15.7886 12.897 14.3549C12.897 12.9212 13.3891 11.7123 14.3733 10.7281C15.3574 9.744 16.5663 9.25192 18 9.25192C19.4337 9.25192 20.6427 9.744 21.6268 10.7281C22.611 11.7123 23.103 12.9212 23.103 14.3549C23.103 15.7886 22.611 16.9975 21.6268 17.9817C20.6427 18.9658 19.4337 19.4579 18 19.4579ZM18 32.5799C15.9831 32.5799 14.0877 32.1972 12.3138 31.4317C10.5399 30.6663 8.99689 29.6275 7.68469 28.3153C6.37249 27.0031 5.33367 25.46 4.56822 23.6861C3.80277 21.9122 3.42004 20.0168 3.42004 17.9999C3.42004 15.983 3.80277 14.0876 4.56822 12.3137C5.33367 10.5398 6.37249 8.99677 7.68469 7.68457C8.99689 6.37237 10.5399 5.33355 12.3138 4.5681C14.0877 3.80265 15.9831 3.41992 18 3.41992C20.0169 3.41992 21.9123 3.80265 23.6862 4.5681C25.4601 5.33355 27.0032 6.37237 28.3154 7.68457C29.6276 8.99677 30.6664 10.5398 31.4319 12.3137C32.1973 14.0876 32.58 15.983 32.58 17.9999C32.58 20.0168 32.1973 21.9122 31.4319 23.6861C30.6664 25.46 29.6276 27.0031 28.3154 28.3153C27.0032 29.6275 25.4601 30.6663 23.6862 31.4317C21.9123 32.1972 20.0169 32.5799 18 32.5799Z" fill="black"/>
</svg>
