<svg width="35" height="49" viewBox="0 0 35 49" fill="none" xmlns="http://www.w3.org/2000/svg">
<path d="M14.6493 17.8288C14.5248 17.9541 14.3231 17.9541 14.1986 17.8288C14.0742 17.7035 14.0742 17.5003 14.1986 17.375L14.8746 16.6944C14.999 16.5691 15.2008 16.5691 15.3252 16.6944C15.4497 16.8197 15.4497 17.0228 15.3252 17.1481L14.6493 17.8288Z" fill="black"/>
<path d="M16.2369 15.7787C16.3614 15.9041 16.5631 15.9041 16.6876 15.7787L17.3635 15.0981C17.488 14.9728 17.488 14.7696 17.3635 14.6443C17.2391 14.519 17.0373 14.519 16.9129 14.6443L16.2369 15.325C16.1125 15.4503 16.1125 15.6534 16.2369 15.7787Z" fill="black"/>
<path d="M12.6109 19.8789C12.4865 20.0042 12.2847 20.0042 12.1603 19.8789C12.0358 19.7536 12.0358 19.5504 12.1603 19.4251L12.8363 18.7444C12.9607 18.6191 13.1625 18.6191 13.2869 18.7444C13.4114 18.8697 13.4114 19.0729 13.2869 19.1982L12.6109 19.8789Z" fill="black"/>
<path fill-rule="evenodd" clip-rule="evenodd" d="M29.04 17.0598C29.04 23.4221 23.8823 28.5798 17.52 28.5798C11.1577 28.5798 6 23.4221 6 17.0598C6 10.6975 11.1577 5.53979 17.52 5.53979C23.8823 5.53979 29.04 10.6975 29.04 17.0598ZM10.0037 14.7923C10.1425 14.6526 10.3671 14.6584 10.539 14.7544C11.0237 15.0251 11.6465 14.9532 12.058 14.5389C12.4709 14.1232 12.5413 13.4932 12.2693 13.0044C12.1745 12.834 12.1689 12.6121 12.3063 12.4738L12.8467 11.9296C13.4689 11.3031 14.4777 11.3031 15.0999 11.9296L21.4772 18.3513C22.1233 19.0019 23.0843 19.2182 23.9439 18.9066L20.733 22.1398C18.8664 24.0194 15.8399 24.0194 13.9733 22.1398L9.46678 17.6019C8.84457 16.9754 8.84457 15.9596 9.46678 15.333L10.0037 14.7923ZM25.5671 17.2697C26.1893 16.6431 26.1893 15.6273 25.5671 15.0007L22.884 12.2941C22.2618 11.6676 21.253 11.6676 20.6307 12.2941L18.6132 14.3281L21.7802 17.522C22.4917 18.2385 23.5349 18.4833 24.4754 18.1795C24.6876 18.111 24.8694 17.9746 25.027 17.8159L25.5671 17.2697Z" fill="black"/>
<path fill-rule="evenodd" clip-rule="evenodd" d="M17.1122 0C21.8791 0 25.9127 1.67047 29.2129 5.01142C32.5539 8.31162 34.2243 12.3452 34.2243 17.1122C34.2243 20.8198 33.5113 23.9163 32.0853 26.4016C30.7 28.8462 29.0907 31.2704 27.2572 33.6743C25.0571 36.6078 23.3866 39.0524 22.2458 41.0081C21.1457 42.923 20.229 44.9602 19.4956 47.1196C19.2919 47.69 18.966 48.1381 18.5178 48.4641C18.1104 48.7493 17.6418 48.8919 17.1122 48.8919C16.5418 48.8919 16.0528 48.7289 15.6454 48.403C15.238 48.077 14.9324 47.6492 14.7287 47.1196C13.9546 44.8379 12.9767 42.6989 11.7952 40.7025C10.6544 38.7061 9.045 36.3633 6.9671 33.6743C4.88919 30.9852 3.19835 28.4184 1.89456 25.9738C0.631521 23.5292 0 20.5753 0 17.1122C0 12.3452 1.6501 8.31162 4.9503 5.01142C8.29125 1.67047 12.3452 0 17.1122 0ZM21.4134 40.5299C20.2827 42.4981 19.3415 44.5897 18.5893 46.8031C18.4454 47.2025 18.2328 47.4822 17.9602 47.6825C17.7265 47.8441 17.4549 47.9319 17.1122 47.9319C16.7381 47.9319 16.4662 47.8302 16.2451 47.6533C15.9859 47.446 15.7788 47.1682 15.6311 46.7914C14.8383 44.4591 13.8366 42.268 12.6251 40.2199C11.4548 38.1728 9.81811 35.7938 7.72673 33.0873C5.67624 30.4337 4.01779 27.9139 2.74462 25.5277C1.56967 23.251 0.96 20.4581 0.96 17.1122C0.96 12.5937 2.51323 8.80614 5.62913 5.69024C8.78824 2.53113 12.5973 0.96 17.1122 0.96C21.6268 0.96 25.4131 2.53078 28.5299 5.68606L28.5383 5.69439C31.6935 8.81119 33.2643 12.5975 33.2643 17.1122C33.2643 20.7003 32.5742 23.6206 31.2526 25.9239L31.2501 25.9283C29.8878 28.3323 28.3029 30.7203 26.4939 33.0921L26.4892 33.0983C24.2787 36.0457 22.5838 38.5234 21.4166 40.5243L21.4134 40.5299Z" fill="black"/>
</svg>
