<svg width="43" height="58" viewBox="0 0 43 58" fill="none" xmlns="http://www.w3.org/2000/svg">
<g filter="url(#filter0_d_1842_646)">
<path d="M21.1122 53.5586C20.5418 53.5586 20.0528 53.3957 19.6454 53.0697C19.238 52.7438 18.9324 52.316 18.7287 51.7863C17.9546 49.5047 16.9767 47.3657 15.7952 45.3693C14.6544 43.3728 13.045 41.0301 10.9671 38.341C8.88919 35.652 7.19835 33.0852 5.89456 30.6406C4.63152 28.196 4 25.2421 4 21.7789C4 17.0119 5.6501 12.9784 8.9503 9.67816C12.2913 6.33722 16.3452 4.66675 21.1122 4.66675C25.8791 4.66675 29.9127 6.33722 33.2129 9.67816C36.5539 12.9784 38.2243 17.0119 38.2243 21.7789C38.2243 25.4865 37.5113 28.583 36.0853 31.0684C34.7 33.513 33.0907 35.9372 31.2572 38.341C29.0571 41.2746 27.3866 43.7191 26.2458 45.6748C25.1457 47.5898 24.229 49.6269 23.4956 51.7863C23.2919 52.3567 22.966 52.8049 22.5178 53.1308C22.1104 53.416 21.6418 53.5586 21.1122 53.5586Z" fill="#B086F0"/>
</g>
<path fill-rule="evenodd" clip-rule="evenodd" d="M33.2129 9.67816C29.9127 6.33722 25.8791 4.66675 21.1122 4.66675C16.3452 4.66675 12.2913 6.33722 8.9503 9.67816C5.6501 12.9784 4 17.0119 4 21.7789C4 25.2421 4.63152 28.196 5.89456 30.6406C7.19835 33.0852 8.88919 35.652 10.9671 38.341C13.045 41.0301 14.6544 43.3728 15.7952 45.3693C16.9767 47.3657 17.9546 49.5047 18.7287 51.7863C18.9324 52.316 19.238 52.7438 19.6454 53.0697C20.0528 53.3957 20.5418 53.5586 21.1122 53.5586C21.6418 53.5586 22.1104 53.416 22.5178 53.1308C22.966 52.8049 23.2919 52.3567 23.4956 51.7863C24.229 49.6269 25.1457 47.5898 26.2458 45.6748C27.3866 43.7191 29.0571 41.2746 31.2572 38.341C33.0907 35.9372 34.7 33.513 36.0853 31.0684C37.5113 28.583 38.2243 25.4865 38.2243 21.7789C38.2243 17.0119 36.5539 12.9784 33.2129 9.67816ZM22.5893 51.4699C23.3415 49.2564 24.2827 47.1649 25.4134 45.1966L25.4166 45.1911C26.5838 43.1902 28.2787 40.7124 30.4892 37.765L30.4939 37.7588L30.4939 37.7589C32.3029 35.387 33.8878 32.9991 35.2501 30.5951L35.2526 30.5906C36.5742 28.2874 37.2643 25.367 37.2643 21.7789C37.2643 17.2642 35.6935 13.4779 32.5383 10.3611L32.5299 10.3529L32.5299 10.3528C29.4131 7.19753 25.6268 5.62675 21.1122 5.62675C16.5973 5.62675 12.7882 7.19788 9.62913 10.357C6.51323 13.4729 4.96 17.2605 4.96 21.7789C4.96 25.1248 5.56967 27.9177 6.74462 30.1944C8.01779 32.5807 9.67624 35.1005 11.7267 37.7541C13.8181 40.4605 15.4548 42.8396 16.6251 44.8866C17.8366 46.9348 18.8383 49.1259 19.6311 51.4582C19.7788 51.8349 19.9859 52.1127 20.2451 52.3201C20.4662 52.4969 20.7381 52.5986 21.1122 52.5986C21.4549 52.5986 21.7265 52.5109 21.9602 52.3493C22.2328 52.1489 22.4454 51.8692 22.5893 51.4699Z" fill="white"/>
<path d="M33.04 21.7265C33.04 28.0889 27.8823 33.2465 21.52 33.2465C15.1577 33.2465 10 28.0889 10 21.7265C10 15.3642 15.1577 10.2065 21.52 10.2065C27.8823 10.2065 33.04 15.3642 33.04 21.7265Z" fill="white"/>
<path d="M29.5002 22.7943C30.1172 22.1815 30.1172 21.1879 29.5002 20.5751L26.8393 17.9279C26.2223 17.3151 25.2219 17.3151 24.6048 17.9279L22.604 19.9173L25.7448 23.0411C26.4503 23.7418 27.4849 23.9813 28.4175 23.6841C28.6279 23.6171 28.8083 23.4837 28.9646 23.3285L29.5002 22.7943Z" fill="#B086F0"/>
<path fill-rule="evenodd" clip-rule="evenodd" d="M14.0661 20.3713C14.2036 20.2347 14.4264 20.2403 14.5969 20.3342C15.0776 20.5989 15.6952 20.5287 16.1033 20.1234C16.5127 19.7168 16.5826 19.1007 16.3128 18.6226C16.2188 18.4559 16.2132 18.2389 16.3495 18.1036L16.8854 17.5714C17.5024 16.9586 18.5029 16.9586 19.1199 17.5714L25.4443 23.8522C26.0849 24.4885 27.038 24.7 27.8904 24.3953L24.7062 27.5575C22.8551 29.3959 19.8538 29.3959 18.0026 27.5575L13.5336 23.1193C12.9165 22.5065 12.9165 21.5129 13.5336 20.9001L14.0661 20.3713ZM18.673 23.3412C18.5496 23.4637 18.3495 23.4637 18.2261 23.3412C18.1027 23.2186 18.1027 23.0199 18.2261 22.8973L18.8965 22.2316C19.0199 22.109 19.22 22.109 19.3434 22.2316C19.4668 22.3542 19.4668 22.5529 19.3434 22.6754L18.673 23.3412ZM20.2475 21.3361C20.3709 21.4586 20.571 21.4586 20.6944 21.3361L21.3648 20.6703C21.4882 20.5478 21.4882 20.3491 21.3648 20.2265C21.2413 20.1039 21.0413 20.1039 20.9179 20.2265L20.2475 20.8922C20.1241 21.0148 20.1241 21.2135 20.2475 21.3361ZM16.6516 25.3463C16.5282 25.4688 16.3281 25.4688 16.2047 25.3463C16.0813 25.2237 16.0813 25.025 16.2047 24.9024L16.8751 24.2367C16.9985 24.1141 17.1986 24.1141 17.322 24.2367C17.4454 24.3592 17.4454 24.558 17.322 24.6805L16.6516 25.3463Z" fill="#B086F0"/>
<defs>
<filter id="filter0_d_1842_646" x="0.16" y="0.826748" width="41.9041" height="56.5718" filterUnits="userSpaceOnUse" color-interpolation-filters="sRGB">
<feFlood flood-opacity="0" result="BackgroundImageFix"/>
<feColorMatrix in="SourceAlpha" type="matrix" values="0 0 0 0 0 0 0 0 0 0 0 0 0 0 0 0 0 0 127 0" result="hardAlpha"/>
<feOffset/>
<feGaussianBlur stdDeviation="1.92"/>
<feComposite in2="hardAlpha" operator="out"/>
<feColorMatrix type="matrix" values="0 0 0 0 0 0 0 0 0 0 0 0 0 0 0 0 0 0 0.25 0"/>
<feBlend mode="normal" in2="BackgroundImageFix" result="effect1_dropShadow_1842_646"/>
<feBlend mode="normal" in="SourceGraphic" in2="effect1_dropShadow_1842_646" result="shape"/>
</filter>
</defs>
</svg>
