<svg width="109" height="22" viewBox="0 0 109 22" fill="none" xmlns="http://www.w3.org/2000/svg">
<g clip-path="url(#clip0_1423_8100)">
<path d="M26.2007 10.6335C27.1848 9.65624 27.1848 8.07179 26.2007 7.09453L21.9574 2.87286C20.9734 1.8956 19.3779 1.8956 18.3939 2.87286L15.2031 6.0454L20.2118 11.0271C21.337 12.1446 22.9868 12.5265 24.4742 12.0526C24.8098 11.9457 25.0974 11.733 25.3466 11.4855L26.2007 10.6335Z" fill="black"/>
<path fill-rule="evenodd" clip-rule="evenodd" d="M1.5872 6.76949C1.8066 6.5516 2.16183 6.56056 2.43368 6.71027C3.20032 7.13248 4.18533 7.02044 4.83609 6.37416C5.48903 5.72572 5.60041 4.74312 5.17024 3.98067C5.02032 3.71496 5.01142 3.36887 5.22868 3.1531L6.08331 2.30436C7.06735 1.3271 8.66279 1.3271 9.64683 2.30436L19.7326 12.3207C20.7543 13.3353 22.2742 13.6727 23.6337 13.1867L18.5556 18.2297C15.6035 21.1615 10.8172 21.1615 7.86507 18.2297L0.73803 11.1518C-0.24601 10.1745 -0.24601 8.59007 0.73803 7.61281L1.5872 6.76949ZM8.93414 11.5057C8.73733 11.7011 8.41824 11.7011 8.22143 11.5057C8.02462 11.3102 8.02462 10.9933 8.22143 10.7979L9.29049 9.73619C9.4873 9.54073 9.80639 9.54073 10.0032 9.73619C10.2 9.93164 10.2 10.2485 10.0032 10.444L8.93414 11.5057ZM11.445 8.30805C11.6419 8.5035 11.9609 8.5035 12.1577 8.30805L13.2268 7.24636C13.4236 7.05091 13.4236 6.73402 13.2268 6.53857C13.03 6.34311 12.7109 6.34311 12.5141 6.53857L11.445 7.60026C11.2482 7.79571 11.2482 8.1126 11.445 8.30805ZM5.71053 14.7033C5.51372 14.8987 5.19463 14.8987 4.99782 14.7033C4.80101 14.5078 4.80101 14.1909 4.99782 13.9955L6.06688 12.9338C6.26369 12.7384 6.58278 12.7384 6.77958 12.9338C6.97639 13.1293 6.97639 13.4461 6.77958 13.6416L5.71053 14.7033Z" fill="black"/>
<path d="M42.7229 17.6116L42.816 11.419C42.397 11.4035 41.9624 11.3958 41.5123 11.3958H40.9769V17.6815C40.9769 18.5506 40.7363 19.0628 40.2552 19.218L39.9525 19.3111C39.8284 19.3421 39.7352 19.3577 39.6732 19.3577C39.4714 19.3577 39.3007 19.2801 39.161 19.1249C39.0368 18.9852 38.9748 18.7989 38.9748 18.5661V4.99363C38.9748 4.55907 39.0213 4.23314 39.1144 4.01586C39.2076 3.79857 39.4016 3.62009 39.6964 3.48041L39.9991 3.34072C40.1233 3.27864 40.2552 3.2476 40.3949 3.2476C40.5966 3.2476 40.7441 3.33296 40.8372 3.50369C40.9303 3.65889 40.9769 3.86065 40.9769 4.10898V9.74284H42.8626L42.9324 5.55236C42.9479 5.1178 43.0023 4.79963 43.0954 4.59787C43.1885 4.38058 43.3825 4.2021 43.6774 4.06242L43.98 3.92273C44.1042 3.86065 44.2284 3.82961 44.3525 3.82961C44.5543 3.82961 44.7017 3.91497 44.7949 4.0857C44.888 4.25642 44.9345 4.46594 44.9345 4.71427L44.725 16.7735C44.694 17.6271 44.4457 18.1316 43.98 18.2868L43.6774 18.3799C43.5532 18.4109 43.4679 18.4264 43.4213 18.4264C43.2196 18.4264 43.0488 18.3566 42.9091 18.2169C42.785 18.0617 42.7229 17.8599 42.7229 17.6116ZM32.7822 13.1651C32.0838 13.1651 31.5638 13.0176 31.2224 12.7227C30.8964 12.4278 30.7335 11.9157 30.7335 11.1862L30.7102 10.2783C30.7102 10.1541 30.7257 9.85924 30.7568 9.39363C30.7568 8.95907 30.8033 8.63314 30.8964 8.41586C30.9896 8.19857 31.1836 8.02009 31.4785 7.88041L31.7811 7.74072C31.9053 7.67864 32.0372 7.6476 32.1769 7.6476C32.3786 7.6476 32.5261 7.73296 32.6192 7.90369C32.7278 8.05889 32.7744 8.26065 32.7589 8.50898L32.689 10.7905C32.6735 11.1474 32.7046 11.3725 32.7822 11.4656C32.8598 11.5432 33.0615 11.582 33.3875 11.582C34.7532 11.582 35.8629 11.5432 36.7166 11.4656C36.9338 11.4346 37.1123 11.4656 37.252 11.5587C37.3917 11.6363 37.4615 11.7527 37.4615 11.9079C37.4615 11.9545 37.446 12.0243 37.415 12.1174L37.3451 12.327C37.2986 12.4822 37.1589 12.6296 36.9261 12.7693C36.7088 12.909 36.4139 12.9943 36.0414 13.0254C34.955 13.134 34.0936 13.1883 33.4573 13.1883L32.7822 13.1651Z" fill="black"/>
<path d="M57.1513 15.0042V3.38728C57.1513 2.95272 57.1979 2.62679 57.291 2.40951C57.3841 2.19222 57.5781 2.01374 57.873 1.87406L58.1756 1.73437C58.2998 1.67229 58.4317 1.64125 58.5714 1.64125C58.7732 1.64125 58.9206 1.72661 59.0137 1.89734C59.1069 2.05254 59.1534 2.2543 59.1534 2.50263V6.87935C60.2088 6.87935 60.8917 6.88711 61.2021 6.90263C61.528 6.91815 61.7841 6.96471 61.9704 7.04231C62.1721 7.10439 62.2342 7.2596 62.1566 7.50792L62.0868 7.764C62.0402 7.96577 61.9238 8.11321 61.7375 8.20633C61.5513 8.28393 61.3495 8.32273 61.1323 8.32273H59.1534V14.1196C59.1534 14.9887 58.9129 15.5009 58.4317 15.6561L58.1291 15.7492C58.0049 15.7802 57.9118 15.7957 57.8497 15.7957C57.648 15.7957 57.4772 15.7259 57.3376 15.5862C57.2134 15.431 57.1513 15.237 57.1513 15.0042ZM47.8159 8.92803C47.8159 7.91921 48.0564 7.11215 48.5376 6.50686C48.9566 5.96365 49.6162 5.62997 50.5164 5.5058C50.5629 5.39716 50.6173 5.32732 50.6794 5.29628C50.7725 5.24972 50.8889 5.22644 51.0286 5.22644C51.7114 5.22644 52.2857 5.51356 52.7513 6.08781C53.2324 6.64654 53.473 7.32168 53.473 8.11321C53.473 9.24619 53.2169 10.1153 52.7047 10.7206C52.2081 11.3259 51.4476 11.6286 50.4233 11.6286C49.6783 11.6286 49.0575 11.3725 48.5608 10.8603C48.0642 10.3481 47.8159 9.70404 47.8159 8.92803ZM54.4275 20.4053C53.8998 20.3898 53.5196 20.3122 53.2868 20.1725C53.054 20.0483 52.9376 19.7534 52.9376 19.2878C52.9376 18.6515 52.9764 17.8832 53.054 16.9831C53.1005 16.4243 53.1781 16.0441 53.2868 15.8423C53.3954 15.625 53.6127 15.4853 53.9386 15.4233L54.3577 15.3301C54.4042 15.3146 54.4741 15.3069 54.5672 15.3069C54.9707 15.3069 55.1492 15.6405 55.1026 16.3079L54.9397 18.4963C54.9241 18.7446 55.0483 18.8688 55.3122 18.8688C55.9174 18.8688 56.8254 18.8532 58.036 18.8222C59.2465 18.7912 60.1234 18.7524 60.6667 18.7058C60.8839 18.6748 61.0624 18.698 61.2021 18.7756C61.3418 18.8688 61.4116 18.9929 61.4116 19.1481C61.4116 19.1947 61.3961 19.2645 61.3651 19.3577L61.2952 19.5672C61.2487 19.7224 61.109 19.8698 60.8762 20.0095C60.6589 20.1492 60.364 20.2346 59.9915 20.2656C59.1224 20.3742 57.6092 20.4286 55.4518 20.4286C54.9086 20.4286 54.5672 20.4208 54.4275 20.4053ZM50.6328 6.87935C50.5397 6.87935 50.4776 6.87935 50.4465 6.87935C50.1982 6.91039 49.9809 7.10439 49.7947 7.46136C49.6085 7.81833 49.5153 8.23737 49.5153 8.7185C49.5153 9.15307 49.624 9.49452 49.8413 9.74284C50.0741 9.99116 50.3457 10.1153 50.6561 10.1153C51.3855 10.1153 51.7502 9.54884 51.7502 8.41586C51.7502 8.01233 51.6882 7.70192 51.564 7.48464C51.4554 7.26736 51.3234 7.11991 51.1682 7.04231C51.0596 6.99575 50.9199 6.93367 50.7492 6.85607C50.7182 6.87159 50.6794 6.87935 50.6328 6.87935Z" fill="black"/>
<path d="M74.8544 19.1249V4.48146C74.8544 4.0469 74.901 3.72097 74.9941 3.50369C75.0872 3.2864 75.2812 3.10792 75.5761 2.96824L75.8788 2.82855C76.0029 2.76647 76.1349 2.73543 76.2745 2.73543C76.4763 2.73543 76.6237 2.82079 76.7169 2.99152C76.81 3.14672 76.8565 3.34848 76.8565 3.59681V18.2402C76.8565 19.1093 76.616 19.6215 76.1349 19.7767L75.8322 19.8698C75.708 19.9009 75.6149 19.9164 75.5528 19.9164C75.3511 19.9164 75.1804 19.8388 75.0407 19.6836C74.9165 19.5439 74.8544 19.3577 74.8544 19.1249ZM65.9846 8.97459C65.9846 7.31392 66.8848 6.35166 68.6851 6.08781C68.7006 6.07229 68.7162 6.04901 68.7317 6.01797C68.8093 5.81621 68.8869 5.69205 68.9645 5.64549C69.0576 5.59893 69.174 5.57564 69.3137 5.57564C69.7172 5.57564 70.1052 5.72309 70.4777 6.01797C70.8657 6.29734 71.1761 6.69311 71.4089 7.20527C71.6417 7.70192 71.7581 8.25289 71.7581 8.85818C71.7581 9.68076 71.5098 10.3481 71.0132 10.8603C70.5165 11.3569 69.7871 11.6053 68.8248 11.6053C67.9557 11.6053 67.265 11.3569 66.7528 10.8603C66.2407 10.3637 65.9846 9.73508 65.9846 8.97459ZM63.8428 15.5164C63.8428 15.4077 63.8816 15.2913 63.9592 15.1672L64.1222 14.8878C64.2463 14.6861 64.386 14.5541 64.5412 14.492C64.6964 14.43 64.9059 14.3912 65.1698 14.3756C65.9303 14.3291 67.0865 14.3058 68.6386 14.3058C70.2682 14.3058 71.665 14.3291 72.829 14.3756C73.1394 14.3912 73.38 14.4377 73.5507 14.5153C73.737 14.5774 73.8068 14.7326 73.7603 14.9809L73.7137 15.2603C73.6671 15.4931 73.5274 15.6638 73.2946 15.7725C73.0774 15.8656 72.8523 15.9122 72.6195 15.9122C71.7504 15.8811 70.2449 15.8656 68.1031 15.8656C66.2252 15.8656 65.0844 15.8811 64.6809 15.9122C64.1222 15.9277 63.8428 15.7958 63.8428 15.5164ZM69.174 7.34496C69.1119 7.40704 69.0266 7.44584 68.9179 7.46136C68.8248 7.46136 68.7627 7.46136 68.7317 7.46136C68.4523 7.50792 68.204 7.63984 67.9867 7.85713C67.7849 8.05889 67.6841 8.36154 67.6841 8.76506C67.6841 9.15307 67.7849 9.47124 67.9867 9.71956C68.204 9.96788 68.4834 10.092 68.8248 10.092C69.1662 10.092 69.4534 10.0067 69.6862 9.83596C69.919 9.64972 70.0354 9.34707 70.0354 8.92803C70.0354 8.18305 69.7638 7.6476 69.2206 7.32168L69.174 7.34496Z" fill="black"/>
<path d="M86.3011 6.73967C86.3011 6.66206 86.3322 6.54566 86.3942 6.39046L86.4641 6.2275C86.5882 6.04125 86.7202 5.91709 86.8598 5.85501C87.0151 5.79293 87.2323 5.74637 87.5117 5.71533C87.8531 5.68429 88.4041 5.66877 89.1646 5.66877C89.6923 5.66877 90.2355 5.67653 90.7942 5.69205V3.31744C90.7942 2.88288 90.8408 2.55695 90.9339 2.33966C91.027 2.12238 91.221 1.9439 91.5159 1.80422L91.8186 1.66453C91.9427 1.60245 92.0747 1.57141 92.2143 1.57141C92.4161 1.57141 92.5636 1.65677 92.6567 1.8275C92.7498 1.9827 92.7964 2.18446 92.7964 2.43279V14.0264C92.7964 14.8956 92.5558 15.4077 92.0747 15.5629L91.772 15.6561C91.6479 15.6871 91.5547 15.7026 91.4927 15.7026C91.2909 15.7026 91.1202 15.6328 90.9805 15.4931C90.8563 15.3379 90.7942 15.1439 90.7942 14.9111V10.837C90.5149 10.837 90.2976 10.8293 90.1424 10.8137L88.9085 10.7905L87.8609 10.8137C87.6591 10.8293 87.372 10.837 86.9995 10.837C86.5339 10.837 86.3011 10.7051 86.3011 10.4413C86.3011 10.3637 86.3322 10.2472 86.3942 10.092L86.4641 9.92908C86.5882 9.74284 86.7202 9.61868 86.8598 9.5566C87.0151 9.49452 87.2323 9.44795 87.5117 9.41691C87.8531 9.38587 88.4041 9.37035 89.1646 9.37035C89.6923 9.37035 90.2355 9.37811 90.7942 9.39363V7.13543C90.5149 7.13543 90.2976 7.12767 90.1424 7.11215L88.9085 7.08887L87.8609 7.11215C87.6591 7.12767 87.372 7.13543 86.9995 7.13543C86.5339 7.13543 86.3011 7.00351 86.3011 6.73967ZM79.7128 9.27723C79.7128 8.17529 79.9921 7.24407 80.5509 6.48358C81.0165 5.83173 81.6761 5.43596 82.5297 5.29628C82.5452 5.26524 82.5607 5.2342 82.5763 5.20316C82.6539 5.00139 82.7315 4.87723 82.8091 4.83067C82.9022 4.78411 83.0186 4.76083 83.1583 4.76083C83.8256 4.76083 84.3611 5.07124 84.7646 5.69205C85.1681 6.31286 85.3699 7.08111 85.3699 7.99681C85.3699 9.23843 85.075 10.2317 84.4852 10.9767C83.911 11.7217 83.1117 12.0942 82.0874 12.0942C81.3579 12.0942 80.7759 11.8381 80.3413 11.3259C79.9223 10.7982 79.7128 10.1153 79.7128 9.27723ZM88.0704 20.4053C87.5427 20.3898 87.1625 20.3122 86.9297 20.1725C86.6969 20.0483 86.5805 19.7534 86.5805 19.2878C86.5805 18.6515 86.6193 17.8832 86.6969 16.9831C86.7435 16.4243 86.821 16.0441 86.9297 15.8423C87.0383 15.625 87.2556 15.4853 87.5815 15.4233L88.0006 15.3301C88.0472 15.3146 88.117 15.3069 88.2101 15.3069C88.6136 15.3069 88.7921 15.6405 88.7456 16.3079L88.5826 18.4963C88.5671 18.7446 88.6912 18.8688 88.9551 18.8688C89.4052 18.8688 90.0337 18.8532 90.8408 18.8222C91.6634 18.7912 92.354 18.7524 92.9128 18.7058C93.13 18.6748 93.3085 18.698 93.4482 18.7756C93.5879 18.8688 93.6577 18.9929 93.6577 19.1481C93.6577 19.1947 93.6422 19.2645 93.6112 19.3577L93.5413 19.5672C93.4948 19.7224 93.3551 19.8698 93.1223 20.0095C92.905 20.1492 92.6101 20.2346 92.2376 20.2656C91.3685 20.3742 90.251 20.4286 88.8852 20.4286C88.4817 20.4286 88.2101 20.4208 88.0704 20.4053ZM83.0186 6.53014C82.9565 6.59222 82.8711 6.63102 82.7625 6.64654C82.6694 6.64654 82.6073 6.64654 82.5763 6.64654C82.3124 6.69311 82.0486 6.91815 81.7847 7.32168C81.5364 7.7252 81.4122 8.22961 81.4122 8.8349C81.4122 9.31603 81.4898 9.72732 81.645 10.0688C81.8158 10.4102 82.0408 10.5809 82.3202 10.5809C82.6771 10.5809 82.9875 10.3947 83.2514 10.0222C83.5152 9.64972 83.6472 9.07547 83.6472 8.29945C83.6472 7.78728 83.6084 7.39928 83.5308 7.13543C83.4532 6.87159 83.3445 6.6931 83.2048 6.59998C83.1583 6.56894 83.1117 6.5379 83.0651 6.50686L83.0186 6.53014Z" fill="black"/>
<path d="M95.4896 13.1651C95.4896 13.0564 95.5284 12.94 95.606 12.8159L95.769 12.5365C95.8776 12.3502 96.0018 12.2338 96.1415 12.1873C96.2811 12.1252 96.5062 12.0709 96.8166 12.0243C97.5616 11.9312 98.9506 11.8846 100.984 11.8846C103.017 11.8846 105.267 11.9312 107.735 12.0243C108.046 12.0398 108.286 12.0864 108.457 12.164C108.643 12.2261 108.713 12.3813 108.666 12.6296L108.62 12.909C108.573 13.1418 108.434 13.3125 108.201 13.4211C107.983 13.5298 107.758 13.5764 107.526 13.5608C106.936 13.5453 106.315 13.5298 105.663 13.5143V18.5894C105.663 19.4585 105.423 19.9707 104.941 20.1259L104.639 20.219C104.515 20.2501 104.422 20.2656 104.359 20.2656C104.158 20.2656 103.987 20.188 103.847 20.0328C103.723 19.8931 103.661 19.7069 103.661 19.4741V14.1428C103.661 13.879 103.677 13.654 103.708 13.4677H101.193V17.1926C101.193 18.0617 100.953 18.5739 100.472 18.7291L100.169 18.8222C100.045 18.8532 99.9517 18.8688 99.8896 18.8688C99.6879 18.8688 99.5171 18.7912 99.3774 18.636C99.2533 18.4963 99.1912 18.31 99.1912 18.0772V14.1428C99.1912 13.879 99.2067 13.6617 99.2378 13.491C97.903 13.5065 96.933 13.5298 96.3277 13.5608C95.769 13.5764 95.4896 13.4444 95.4896 13.1651ZM100.006 9.16083C99.3852 9.16083 99.0748 8.82714 99.0748 8.15977V4.48146C99.0748 4.10898 99.1602 3.82961 99.3309 3.64337C99.5016 3.45713 99.7267 3.35624 100.006 3.34072L101.356 3.27088C102.412 3.19328 103.327 3.15448 104.103 3.15448C104.507 3.15448 104.779 3.2476 104.918 3.43385C105.058 3.60457 105.135 3.86065 105.151 4.2021C105.198 5.10228 105.221 5.82397 105.221 6.36718C105.221 6.72415 105.205 7.27512 105.174 8.02009C105.174 8.4857 105.089 8.78058 104.918 8.90474C104.747 9.02891 104.491 9.09099 104.15 9.09099L100.006 9.16083ZM101.007 7.5312C101.302 7.54672 101.667 7.54672 102.101 7.5312C102.536 7.51568 102.908 7.4924 103.219 7.46136C103.219 6.39046 103.211 5.45924 103.195 4.66771C102.326 4.66771 101.597 4.70651 101.007 4.78411L100.984 6.20422L101.007 7.5312Z" fill="black"/>
</g>
<defs>
<clipPath id="clip0_1423_8100">
<rect width="108.68" height="22" fill="white"/>
</clipPath>
</defs>
</svg>
