<svg width="36" height="36" viewBox="0 0 36 36" fill="none" xmlns="http://www.w3.org/2000/svg">
<g clip-path="url(#clip0_1277_3640)">
<path fill-rule="evenodd" clip-rule="evenodd" d="M18 36C27.9411 36 36 27.9411 36 18C36 8.05887 27.9411 0 18 0C8.05887 0 0 8.05887 0 18C0 27.9411 8.05887 36 18 36ZM22.5391 12.9164C23.2983 13.6756 24.5292 13.6756 25.2884 12.9164L27.3503 14.9783C27.7299 15.3579 27.7299 15.9734 27.3503 16.353L16.3534 27.3499C15.9738 27.7295 15.3583 27.7295 14.9787 27.3499L12.9168 25.2879C13.6759 24.5288 13.6759 23.2979 12.9168 22.5387C12.1576 21.7796 10.9267 21.7795 10.1676 22.5387L8.10566 20.4768C7.72607 20.0972 7.72607 19.4818 8.10566 19.1022L19.1026 8.10527C19.4822 7.72568 20.0976 7.72568 20.4772 8.10527L22.5391 10.1672C21.7799 10.9264 21.7799 12.1573 22.5391 12.9164Z" fill="black"/>
<path d="M19.1026 15.4371L20.019 16.3535L19.1026 17.2699L18.1862 16.3535L19.1026 15.4371Z" fill="black"/>
<path d="M20.9354 17.2699L21.8519 18.1863L20.9354 19.1027L20.019 18.1863L20.9354 17.2699Z" fill="black"/>
<path d="M17.2697 13.6042L18.1862 14.5207L17.2697 15.4371L16.3533 14.5207L17.2697 13.6042Z" fill="black"/>
</g>
<defs>
<clipPath id="clip0_1277_3640">
<rect width="36" height="36" fill="white"/>
</clipPath>
</defs>
</svg>
