<svg width="36" height="36" viewBox="0 0 36 36" fill="none" xmlns="http://www.w3.org/2000/svg">
<path d="M14.5262 32.16C14.0219 32.16 13.5965 31.7845 13.534 31.284L13.0603 27.4944C12.7444 27.3729 12.4467 27.2271 12.1672 27.057C11.8878 26.8869 11.6144 26.7047 11.3471 26.5103L7.82123 27.9917C7.35722 28.1867 6.82062 28.0064 6.56844 27.5708L3.44282 22.172C3.18994 21.7352 3.30218 21.1785 3.70453 20.8738L6.75441 18.5642C6.73011 18.3941 6.71796 18.23 6.71796 18.0721V17.0879C6.71796 16.93 6.73011 16.766 6.75441 16.5958L3.70453 14.2862C3.30218 13.9815 3.18994 13.4248 3.44282 12.988L6.56844 7.58918C6.82062 7.15361 7.35722 6.97333 7.82123 7.16829L11.3471 8.64975C11.6144 8.45535 11.8939 8.2731 12.1855 8.103C12.4771 7.9329 12.7687 7.7871 13.0603 7.6656L13.534 3.87597C13.5965 3.37554 14.0219 3 14.5262 3H20.7797C21.284 3 21.7094 3.37554 21.772 3.87597L22.2457 7.6656C22.5616 7.7871 22.8592 7.9329 23.1387 8.103C23.4181 8.2731 23.6915 8.45535 23.9588 8.64975L27.4847 7.16829C27.9487 6.97333 28.4853 7.15361 28.7375 7.58918L31.8631 12.988C32.116 13.4248 32.0037 13.9815 31.6014 14.2862L28.5515 16.5958C28.5758 16.766 28.588 16.93 28.588 17.0879V18.0721C28.588 18.23 28.5637 18.3941 28.5151 18.5642L31.5649 20.8738C31.9673 21.1785 32.0795 21.7352 31.8267 22.172L28.7024 27.5685C28.4496 28.0051 27.9113 28.185 27.4468 27.9882L23.9588 26.5103C23.6915 26.7047 23.4121 26.8869 23.1205 27.057C22.8289 27.2271 22.5373 27.3729 22.2457 27.4944L21.772 31.284C21.7094 31.7845 21.284 32.16 20.7797 32.16H14.5262ZM16.195 29.244H19.0745L19.5848 25.3803C20.3381 25.1859 21.0367 24.9004 21.6807 24.5237C22.3246 24.1471 22.9139 23.6915 23.4485 23.1569L27.0571 24.6513L28.4786 22.1727L25.3439 19.8035C25.4654 19.4633 25.5505 19.1048 25.5991 18.7282C25.6477 18.3515 25.672 17.9688 25.672 17.58C25.672 17.1912 25.6477 16.8085 25.5991 16.4318C25.5505 16.0552 25.4654 15.6968 25.3439 15.3566L28.4786 12.9873L27.0571 10.5087L23.4485 12.0396C22.9139 11.4807 22.3246 11.0129 21.6807 10.6363C21.0367 10.2596 20.3381 9.9741 19.5848 9.7797L19.111 5.916H16.2314L15.7211 9.7797C14.9678 9.9741 14.2692 10.2596 13.6252 10.6363C12.9813 11.0129 12.392 11.4686 11.8574 12.0032L8.24886 10.5087L6.82731 12.9873L9.96201 15.3201C9.84051 15.6846 9.75546 16.0491 9.70686 16.4136C9.65826 16.7781 9.63396 17.1669 9.63396 17.58C9.63396 17.9688 9.65826 18.3455 9.70686 18.71C9.75546 19.0745 9.84051 19.439 9.96201 19.8035L6.82731 22.1727L8.24886 24.6513L11.8574 23.1204C12.392 23.6793 12.9813 24.1471 13.6252 24.5237C14.2692 24.9004 14.9678 25.1859 15.7211 25.3803L16.195 29.244ZM17.7259 22.683C19.1353 22.683 20.3381 22.1849 21.3344 21.1886C22.3307 20.1923 22.8289 18.9894 22.8289 17.58C22.8289 16.1706 22.3307 14.9678 21.3344 13.9715C20.3381 12.9752 19.1353 12.477 17.7259 12.477C16.2922 12.477 15.0832 12.9752 14.0991 13.9715C13.1149 14.9678 12.6229 16.1706 12.6229 17.58C12.6229 18.9894 13.1149 20.1923 14.0991 21.1886C15.0832 22.1849 16.2922 22.683 17.7259 22.683Z" fill="black"/>
</svg>
