<svg width="36" height="36" viewBox="0 0 36 36" fill="none" xmlns="http://www.w3.org/2000/svg">
<path d="M16.68 7.43979H7.44002C6.73985 7.43979 6.06835 7.71793 5.57326 8.21303C5.07816 8.70813 4.80002 9.37962 4.80002 10.0798V28.5598C4.80002 29.26 5.07816 29.9315 5.57326 30.4266C6.06835 30.9217 6.73985 31.1998 7.44002 31.1998H25.92C26.6202 31.1998 27.2917 30.9217 27.7868 30.4266C28.2819 29.9315 28.56 29.26 28.56 28.5598V19.3198M26.58 5.45979C27.1051 4.93466 27.8174 4.63965 28.56 4.63965C29.3027 4.63965 30.0149 4.93466 30.54 5.45979C31.0651 5.98492 31.3602 6.69715 31.3602 7.43979C31.3602 8.18244 31.0651 8.89466 30.54 9.41979L18 21.9598L12.72 23.2798L14.04 17.9998L26.58 5.45979Z" stroke="black" stroke-width="2.64" stroke-linecap="round" stroke-linejoin="round"/>
</svg>
