<svg width="36" height="36" viewBox="0 0 36 36" fill="none" xmlns="http://www.w3.org/2000/svg">
<path d="M21.36 8.0481C20.7944 8.0481 20.336 8.50656 20.336 9.0721C20.336 9.63764 20.7944 10.0961 21.36 10.0961H25.0318L19.6119 15.516C19.212 15.9159 19.212 16.5643 19.6119 16.9642C20.0118 17.3641 20.6602 17.3641 21.0601 16.9642L26.48 11.5443V15.2161C26.48 15.7816 26.9384 16.2401 27.504 16.2401C28.0695 16.2401 28.528 15.7816 28.528 15.2161V9.0721C28.528 8.50656 28.0695 8.0481 27.504 8.0481H21.36Z" fill="black"/>
<path d="M16.9641 21.0602C17.3639 20.6603 17.3639 20.0119 16.9641 19.612C16.5642 19.2121 15.9158 19.2121 15.5159 19.612L10.096 25.0319V21.3601C10.096 20.7946 9.63751 20.3361 9.07197 20.3361C8.50643 20.3361 8.04797 20.7946 8.04797 21.3601V27.5041C8.04797 28.0696 8.50643 28.5281 9.07197 28.5281H15.216C15.7815 28.5281 16.24 28.0696 16.24 27.5041C16.24 26.9386 15.7815 26.4801 15.216 26.4801H11.5441L16.9641 21.0602Z" fill="black"/>
<path fill-rule="evenodd" clip-rule="evenodd" d="M0 18C0 12.4087 0 9.61305 0.913445 7.4078C2.13137 4.46746 4.46746 2.13137 7.4078 0.913445C9.61305 0 12.4087 0 18 0C23.5913 0 26.3869 0 28.5922 0.913445C31.5325 2.13137 33.8686 4.46746 35.0866 7.4078C36 9.61305 36 12.4087 36 18C36 23.5913 36 26.3869 35.0866 28.5922C33.8686 31.5325 31.5325 33.8686 28.5922 35.0866C26.3869 36 23.5913 36 18 36C12.4087 36 9.61305 36 7.4078 35.0866C4.46746 33.8686 2.13137 31.5325 0.913445 28.5922C0 26.3869 0 23.5913 0 18ZM18 35.5C15.1975 35.5 13.1207 35.4997 11.4682 35.387C9.82014 35.2745 8.63069 35.0519 7.59914 34.6246C4.78132 33.4574 2.54257 31.2187 1.37539 28.4009C0.948104 27.3693 0.725465 26.1799 0.613021 24.5318C0.500271 22.8793 0.5 20.8025 0.5 18C0.5 15.1975 0.500271 13.1207 0.613021 11.4682C0.725465 9.82014 0.948104 8.63069 1.37539 7.59914C2.54257 4.78132 4.78132 2.54257 7.59914 1.37539C8.63069 0.948104 9.82014 0.725465 11.4682 0.613021C13.1207 0.500271 15.1975 0.5 18 0.5C20.8025 0.5 22.8793 0.500271 24.5318 0.613021C26.1799 0.725465 27.3693 0.948104 28.4009 1.37539C31.2187 2.54257 33.4574 4.78132 34.6246 7.59914C35.0519 8.63069 35.2745 9.82014 35.387 11.4682C35.4997 13.1207 35.5 15.1975 35.5 18C35.5 20.8025 35.4997 22.8793 35.387 24.5318C35.2745 26.1799 35.0519 27.3693 34.6246 28.4009C33.4574 31.2187 31.2187 33.4574 28.4009 34.6246C27.3693 35.0519 26.1799 35.2745 24.5318 35.387C22.8793 35.4997 20.8025 35.5 18 35.5Z" fill="black"/>
</svg>
