<svg width="100" height="28" viewBox="0 0 100 28" fill="none" xmlns="http://www.w3.org/2000/svg">
<path d="M15.2889 22.4148L15.4074 14.5333C14.8741 14.5136 14.321 14.5037 13.7481 14.5037H13.0667V22.5037C13.0667 23.6099 12.7605 24.2617 12.1481 24.4593L11.763 24.5778C11.6049 24.6173 11.4864 24.637 11.4074 24.637C11.1506 24.637 10.9333 24.5383 10.7556 24.3407C10.5975 24.163 10.5185 23.9259 10.5185 23.6296V6.35556C10.5185 5.80247 10.5778 5.38765 10.6963 5.11111C10.8148 4.83457 11.0617 4.60741 11.437 4.42963L11.8222 4.25185C11.9802 4.17284 12.1481 4.13333 12.3259 4.13333C12.5827 4.13333 12.7704 4.24198 12.8889 4.45926C13.0074 4.65679 13.0667 4.91358 13.0667 5.22963V12.4H15.4667L15.5556 7.06667C15.5753 6.51358 15.6444 6.10864 15.763 5.85185C15.8815 5.57531 16.1284 5.34815 16.5037 5.17037L16.8889 4.99259C17.0469 4.91358 17.2049 4.87407 17.363 4.87407C17.6198 4.87407 17.8074 4.98272 17.9259 5.2C18.0444 5.41728 18.1037 5.68395 18.1037 6L17.837 21.3481C17.7975 22.4346 17.4815 23.0765 16.8889 23.2741L16.5037 23.3926C16.3457 23.4321 16.237 23.4519 16.1778 23.4519C15.921 23.4519 15.7037 23.363 15.5259 23.1852C15.3679 22.9877 15.2889 22.7309 15.2889 22.4148ZM2.63704 16.7556C1.74815 16.7556 1.08642 16.5679 0.651852 16.1926C0.237037 15.8173 0.0296297 15.1654 0.0296297 14.237L0 13.0815C0 12.9235 0.0197531 12.5481 0.0592594 11.9556C0.0592594 11.4025 0.118519 10.9877 0.237037 10.7111C0.355556 10.4346 0.602469 10.2074 0.977778 10.0296L1.36296 9.85185C1.52099 9.77284 1.68889 9.73333 1.86667 9.73333C2.12346 9.73333 2.31111 9.84198 2.42963 10.0593C2.5679 10.2568 2.62716 10.5136 2.60741 10.8296L2.51852 13.7333C2.49877 14.1877 2.53827 14.4741 2.63704 14.5926C2.7358 14.6914 2.99259 14.7407 3.40741 14.7407C5.14568 14.7407 6.55802 14.6914 7.64444 14.5926C7.92099 14.5531 8.14815 14.5926 8.32593 14.7111C8.5037 14.8099 8.59259 14.958 8.59259 15.1556C8.59259 15.2148 8.57284 15.3037 8.53333 15.4222L8.44444 15.6889C8.38518 15.8864 8.20741 16.0741 7.91111 16.2519C7.63457 16.4296 7.25926 16.5383 6.78518 16.5778C5.40247 16.716 4.30617 16.7852 3.4963 16.7852L2.63704 16.7556Z" fill="black"/>
<path d="M33.6523 19.0963V4.31111C33.6523 3.75802 33.7116 3.34321 33.8301 3.06667C33.9486 2.79012 34.1955 2.56296 34.5708 2.38519L34.956 2.20741C35.114 2.1284 35.2819 2.08889 35.4597 2.08889C35.7165 2.08889 35.9042 2.19753 36.0227 2.41481C36.1412 2.61235 36.2005 2.86914 36.2005 3.18519V8.75556C37.5437 8.75556 38.4128 8.76543 38.8079 8.78519C39.2227 8.80494 39.5486 8.8642 39.7856 8.96296C40.0424 9.04198 40.1214 9.23951 40.0227 9.55556L39.9338 9.88148C39.8745 10.1383 39.7264 10.3259 39.4893 10.4444C39.2523 10.5432 38.9955 10.5926 38.719 10.5926H36.2005V17.9704C36.2005 19.0765 35.8943 19.7284 35.2819 19.9259L34.8968 20.0444C34.7387 20.084 34.6202 20.1037 34.5412 20.1037C34.2844 20.1037 34.0671 20.0148 33.8894 19.837C33.7313 19.6395 33.6523 19.3926 33.6523 19.0963ZM21.7708 11.363C21.7708 10.079 22.077 9.05185 22.6894 8.28148C23.2227 7.59012 24.0622 7.16543 25.2079 7.00741C25.2671 6.86914 25.3363 6.78025 25.4153 6.74074C25.5338 6.68148 25.6819 6.65185 25.8597 6.65185C26.7289 6.65185 27.4597 7.01728 28.0523 7.74815C28.6647 8.45926 28.9708 9.31852 28.9708 10.3259C28.9708 11.7679 28.6449 12.8741 27.9931 13.6444C27.361 14.4148 26.3931 14.8 25.0894 14.8C24.1412 14.8 23.3511 14.4741 22.719 13.8222C22.0869 13.1704 21.7708 12.3506 21.7708 11.363ZM30.1856 25.9704C29.514 25.9506 29.0301 25.8519 28.7338 25.6741C28.4375 25.516 28.2894 25.1407 28.2894 24.5481C28.2894 23.7383 28.3387 22.7605 28.4375 21.6148C28.4968 20.9037 28.5955 20.4198 28.7338 20.163C28.8721 19.8864 29.1486 19.7086 29.5634 19.6296L30.0968 19.5111C30.156 19.4914 30.2449 19.4815 30.3634 19.4815C30.877 19.4815 31.1042 19.9062 31.0449 20.7556L30.8375 23.5407C30.8177 23.8568 30.9758 24.0148 31.3116 24.0148C32.0819 24.0148 33.2375 23.9951 34.7782 23.9556C36.319 23.916 37.435 23.8667 38.1264 23.8074C38.4029 23.7679 38.6301 23.7975 38.8079 23.8963C38.9856 24.0148 39.0745 24.1728 39.0745 24.3704C39.0745 24.4296 39.0548 24.5185 39.0153 24.637L38.9264 24.9037C38.8671 25.1012 38.6893 25.2889 38.3931 25.4667C38.1165 25.6444 37.7412 25.7531 37.2671 25.7926C36.161 25.9309 34.235 26 31.4894 26C30.798 26 30.3634 25.9901 30.1856 25.9704ZM25.356 8.75556C25.2375 8.75556 25.1585 8.75556 25.119 8.75556C24.8029 8.79506 24.5264 9.04198 24.2894 9.4963C24.0523 9.95062 23.9338 10.484 23.9338 11.0963C23.9338 11.6494 24.0721 12.084 24.3486 12.4C24.6449 12.716 24.9906 12.8741 25.3856 12.8741C26.314 12.8741 26.7782 12.1531 26.7782 10.7111C26.7782 10.1975 26.6992 9.80247 26.5412 9.52593C26.4029 9.24938 26.235 9.06173 26.0375 8.96296C25.8992 8.9037 25.7214 8.82469 25.5042 8.72593C25.4647 8.74568 25.4153 8.75556 25.356 8.75556Z" fill="black"/>
<path d="M56.1836 24.3407V5.7037C56.1836 5.15062 56.2428 4.7358 56.3613 4.45926C56.4799 4.18272 56.7268 3.95556 57.1021 3.77778L57.4873 3.6C57.6453 3.52099 57.8132 3.48148 57.991 3.48148C58.2478 3.48148 58.4354 3.59012 58.5539 3.80741C58.6725 4.00494 58.7317 4.26173 58.7317 4.57778V23.2148C58.7317 24.321 58.4255 24.9728 57.8132 25.1704L57.428 25.2889C57.27 25.3284 57.1515 25.3481 57.0725 25.3481C56.8157 25.3481 56.5984 25.2494 56.4206 25.0519C56.2626 24.8741 56.1836 24.637 56.1836 24.3407ZM44.8947 11.4222C44.8947 9.30864 46.0404 8.08395 48.3317 7.74815C48.3515 7.72839 48.3712 7.69877 48.391 7.65926C48.4897 7.40247 48.5885 7.24444 48.6873 7.18519C48.8058 7.12593 48.9539 7.0963 49.1317 7.0963C49.6453 7.0963 50.1391 7.28395 50.6132 7.65926C51.107 8.01482 51.5021 8.51852 51.7984 9.17037C52.0947 9.80247 52.2428 10.5037 52.2428 11.2741C52.2428 12.321 51.9268 13.1704 51.2947 13.8222C50.6626 14.4543 49.7342 14.7704 48.5095 14.7704C47.4033 14.7704 46.5243 14.4543 45.8725 13.8222C45.2206 13.1901 44.8947 12.3901 44.8947 11.4222ZM42.1687 19.7481C42.1687 19.6099 42.2181 19.4617 42.3169 19.3037L42.5243 18.9481C42.6823 18.6914 42.8601 18.5235 43.0576 18.4444C43.2552 18.3654 43.5218 18.316 43.8576 18.2963C44.8255 18.237 46.2971 18.2074 48.2725 18.2074C50.3465 18.2074 52.1243 18.237 53.6058 18.2963C54.0008 18.316 54.307 18.3753 54.5243 18.4741C54.7613 18.5531 54.8502 18.7506 54.791 19.0667L54.7317 19.4222C54.6725 19.7185 54.4947 19.9358 54.1984 20.0741C53.9218 20.1926 53.6354 20.2519 53.3391 20.2519C52.2329 20.2123 50.3169 20.1926 47.591 20.1926C45.2008 20.1926 43.749 20.2123 43.2354 20.2519C42.5243 20.2716 42.1687 20.1037 42.1687 19.7481ZM48.9539 9.34815C48.8749 9.42716 48.7663 9.47654 48.628 9.4963C48.5095 9.4963 48.4305 9.4963 48.391 9.4963C48.0354 9.55556 47.7194 9.72346 47.4428 10C47.186 10.2568 47.0576 10.642 47.0576 11.1556C47.0576 11.6494 47.186 12.0543 47.4428 12.3704C47.7194 12.6864 48.0749 12.8444 48.5095 12.8444C48.9441 12.8444 49.3095 12.7358 49.6058 12.5185C49.9021 12.2815 50.0502 11.8963 50.0502 11.363C50.0502 10.4148 49.7046 9.73333 49.0132 9.31852L48.9539 9.34815Z" fill="black"/>
<path d="M70.7521 8.57778C70.7521 8.47901 70.7916 8.33086 70.8706 8.13333L70.9595 7.92593C71.1175 7.68889 71.2854 7.53086 71.4632 7.45185C71.6607 7.37284 71.9373 7.31358 72.2928 7.27407C72.7274 7.23457 73.4286 7.21481 74.3965 7.21481C75.0681 7.21481 75.7595 7.22469 76.4706 7.24445V4.22222C76.4706 3.66914 76.5299 3.25432 76.6484 2.97778C76.7669 2.70123 77.0138 2.47407 77.3891 2.2963L77.7743 2.11852C77.9323 2.03951 78.1002 2 78.278 2C78.5348 2 78.7224 2.10864 78.841 2.32593C78.9595 2.52346 79.0187 2.78025 79.0187 3.0963V17.8519C79.0187 18.958 78.7126 19.6099 78.1002 19.8074L77.715 19.9259C77.557 19.9654 77.4385 19.9852 77.3595 19.9852C77.1027 19.9852 76.8854 19.8963 76.7076 19.7185C76.5496 19.521 76.4706 19.2741 76.4706 18.9778V13.7926C76.115 13.7926 75.8385 13.7827 75.641 13.763L74.0706 13.7333L72.7373 13.763C72.4805 13.7827 72.115 13.7926 71.641 13.7926C71.0484 13.7926 70.7521 13.6247 70.7521 13.2889C70.7521 13.1901 70.7916 13.042 70.8706 12.8444L70.9595 12.637C71.1175 12.4 71.2854 12.242 71.4632 12.163C71.6607 12.084 71.9373 12.0247 72.2928 11.9852C72.7274 11.9457 73.4286 11.9259 74.3965 11.9259C75.0681 11.9259 75.7595 11.9358 76.4706 11.9556V9.08148C76.115 9.08148 75.8385 9.07161 75.641 9.05185L74.0706 9.02222L72.7373 9.05185C72.4805 9.07161 72.115 9.08148 71.641 9.08148C71.0484 9.08148 70.7521 8.91358 70.7521 8.57778ZM62.3669 11.8074C62.3669 10.4049 62.7224 9.21975 63.4336 8.25185C64.0261 7.42222 64.8657 6.91852 65.9521 6.74074C65.9718 6.70124 65.9916 6.66173 66.0113 6.62222C66.1101 6.36543 66.2089 6.20741 66.3076 6.14815C66.4262 6.08889 66.5743 6.05926 66.7521 6.05926C67.6015 6.05926 68.2829 6.45432 68.7965 7.24445C69.3101 8.03457 69.5669 9.01235 69.5669 10.1778C69.5669 11.758 69.1916 13.0222 68.441 13.9704C67.7101 14.9185 66.6928 15.3926 65.3891 15.3926C64.4607 15.3926 63.72 15.0667 63.1669 14.4148C62.6336 13.7432 62.3669 12.8741 62.3669 11.8074ZM73.0039 25.9704C72.3323 25.9506 71.8484 25.8519 71.5521 25.6741C71.2558 25.516 71.1076 25.1407 71.1076 24.5481C71.1076 23.7383 71.157 22.7605 71.2558 21.6148C71.315 20.9037 71.4138 20.4198 71.5521 20.163C71.6903 19.8864 71.9669 19.7086 72.3817 19.6296L72.915 19.5111C72.9743 19.4914 73.0632 19.4815 73.1817 19.4815C73.6953 19.4815 73.9224 19.9062 73.8632 20.7556L73.6558 23.5407C73.636 23.8568 73.7941 24.0148 74.1299 24.0148C74.7027 24.0148 75.5027 23.9951 76.5299 23.9556C77.5768 23.916 78.4558 23.8667 79.1669 23.8074C79.4434 23.7679 79.6706 23.7975 79.8484 23.8963C80.0262 24.0148 80.115 24.1728 80.115 24.3704C80.115 24.4296 80.0953 24.5185 80.0558 24.637L79.9669 24.9037C79.9076 25.1012 79.7299 25.2889 79.4336 25.4667C79.157 25.6444 78.7817 25.7531 78.3076 25.7926C77.2015 25.9309 75.7792 26 74.041 26C73.5274 26 73.1817 25.9901 73.0039 25.9704ZM66.5743 8.31111C66.4953 8.39012 66.3866 8.43951 66.2484 8.45926C66.1299 8.45926 66.0508 8.45926 66.0113 8.45926C65.6755 8.51852 65.3397 8.80494 65.0039 9.31852C64.6879 9.8321 64.5299 10.4741 64.5299 11.2444C64.5299 11.8568 64.6286 12.3802 64.8262 12.8148C65.0434 13.2494 65.3299 13.4667 65.6854 13.4667C66.1397 13.4667 66.5348 13.2296 66.8706 12.7556C67.2064 12.2815 67.3743 11.5506 67.3743 10.563C67.3743 9.91111 67.3249 9.41728 67.2262 9.08148C67.1274 8.74568 66.9891 8.51852 66.8113 8.4C66.7521 8.36049 66.6928 8.32099 66.6336 8.28148L66.5743 8.31111Z" fill="black"/>
<path d="M82.4465 16.7556C82.4465 16.6173 82.4959 16.4691 82.5947 16.3111L82.8021 15.9556C82.9403 15.7185 83.0984 15.5704 83.2762 15.5111C83.4539 15.4321 83.7403 15.363 84.1354 15.3037C85.0836 15.1852 86.8515 15.1259 89.4391 15.1259C92.0268 15.1259 94.891 15.1852 98.0317 15.3037C98.4268 15.3235 98.7329 15.3827 98.9502 15.4815C99.1873 15.5605 99.2762 15.758 99.2169 16.0741L99.1576 16.4296C99.0984 16.7259 98.9206 16.9432 98.6243 17.0815C98.3478 17.2198 98.0613 17.279 97.765 17.2593C97.0144 17.2395 96.2243 17.2198 95.3947 17.2V23.6593C95.3947 24.7654 95.0885 25.4173 94.4762 25.6148L94.091 25.7333C93.9329 25.7728 93.8144 25.7926 93.7354 25.7926C93.4786 25.7926 93.2613 25.6938 93.0836 25.4963C92.9255 25.3185 92.8465 25.0815 92.8465 24.7852V18C92.8465 17.6642 92.8663 17.3778 92.9058 17.1407H89.7058V21.8815C89.7058 22.9877 89.3996 23.6395 88.7873 23.837L88.4021 23.9556C88.2441 23.9951 88.1255 24.0148 88.0465 24.0148C87.7897 24.0148 87.5724 23.9161 87.3947 23.7185C87.2366 23.5407 87.1576 23.3037 87.1576 23.0074V18C87.1576 17.6642 87.1774 17.3877 87.2169 17.1704C85.5181 17.1901 84.2836 17.2198 83.5132 17.2593C82.8021 17.279 82.4465 17.1111 82.4465 16.7556ZM88.1947 11.6593C87.4045 11.6593 87.0095 11.2346 87.0095 10.3852V5.7037C87.0095 5.22963 87.1181 4.87407 87.3354 4.63704C87.5527 4.4 87.8391 4.27161 88.1947 4.25185L89.9132 4.16296C91.2564 4.0642 92.4218 4.01482 93.4095 4.01482C93.9231 4.01482 94.2687 4.13333 94.4465 4.37037C94.6243 4.58765 94.7231 4.91358 94.7428 5.34815C94.8021 6.49383 94.8317 7.41235 94.8317 8.1037C94.8317 8.55803 94.812 9.25926 94.7724 10.2074C94.7724 10.8 94.6638 11.1753 94.4465 11.3333C94.2292 11.4914 93.9033 11.5704 93.4687 11.5704L88.1947 11.6593ZM89.4687 9.58519C89.8441 9.60494 90.3083 9.60494 90.8613 9.58519C91.4144 9.56543 91.8885 9.5358 92.2836 9.4963C92.2836 8.13333 92.2737 6.94815 92.2539 5.94074C91.1478 5.94074 90.2194 5.99012 89.4687 6.08889L89.4391 7.8963L89.4687 9.58519Z" fill="black"/>
</svg>
