<svg width="90" height="34" viewBox="0 0 90 34" fill="none" xmlns="http://www.w3.org/2000/svg">
<path d="M13.7926 24.1169L13.8995 17.0067C13.4183 16.9889 12.9194 16.98 12.4026 16.98H11.7878V24.1971C11.7878 25.195 11.5116 25.7831 10.9592 25.9613L10.6117 26.0682C10.4691 26.1039 10.3622 26.1217 10.2909 26.1217C10.0593 26.1217 9.86325 26.0326 9.70287 25.8544C9.56031 25.694 9.48903 25.4802 9.48903 25.2129V9.62926C9.48903 9.1303 9.54249 8.75608 9.64941 8.5066C9.75633 8.25712 9.97908 8.05219 10.3177 7.89181L10.6651 7.73143C10.8077 7.66015 10.9592 7.62451 11.1196 7.62451C11.3512 7.62451 11.5205 7.72252 11.6274 7.91854C11.7343 8.09674 11.7878 8.3284 11.7878 8.61352V15.0822H13.9529L14.0331 10.2708C14.0509 9.77182 14.1133 9.40651 14.2202 9.17485C14.3272 8.92537 14.5499 8.72044 14.8885 8.56006L15.236 8.39968C15.3785 8.3284 15.5211 8.29276 15.6637 8.29276C15.8953 8.29276 16.0646 8.39077 16.1715 8.58679C16.2784 8.78281 16.3319 9.02338 16.3319 9.3085L16.0913 23.1546C16.0557 24.1347 15.7706 24.7139 15.236 24.8921L14.8885 24.999C14.7459 25.0347 14.6479 25.0525 14.5945 25.0525C14.3628 25.0525 14.1668 24.9723 14.0064 24.8119C13.8638 24.6337 13.7926 24.402 13.7926 24.1169ZM2.37885 19.0115C1.57695 19.0115 0.979978 18.8422 0.587938 18.5036C0.213718 18.165 0.026608 17.577 0.026608 16.7394L-0.00012207 15.697C-0.00012207 15.5544 0.017698 15.2158 0.053338 14.6812C0.053338 14.1823 0.106798 13.8081 0.213718 13.5586C0.320638 13.3091 0.543388 13.1042 0.881968 12.9438L1.22946 12.7834C1.37202 12.7121 1.52349 12.6765 1.68387 12.6765C1.91553 12.6765 2.08482 12.7745 2.19174 12.9705C2.31648 13.1487 2.36994 13.3804 2.35212 13.6655L2.27193 16.285C2.25411 16.6949 2.28975 16.9533 2.37885 17.0602C2.46795 17.1493 2.69961 17.1939 3.07383 17.1939C4.64199 17.1939 5.91612 17.1493 6.89622 17.0602C7.1457 17.0246 7.35063 17.0602 7.51101 17.1671C7.67139 17.2562 7.75158 17.3899 7.75158 17.5681C7.75158 17.6215 7.73376 17.7017 7.69812 17.8086L7.61793 18.0492C7.56447 18.2274 7.40409 18.3967 7.13679 18.5571C6.88731 18.7175 6.54873 18.8155 6.12105 18.8511C4.87365 18.9759 3.88464 19.0382 3.15402 19.0382L2.37885 19.0115Z" fill="black"/>
<path d="M30.3589 21.1232V7.78489C30.3589 7.28593 30.4124 6.91171 30.5193 6.66223C30.6262 6.41275 30.8489 6.20782 31.1875 6.04744L31.535 5.88706C31.6776 5.81578 31.829 5.78014 31.9894 5.78014C32.2211 5.78014 32.3904 5.87815 32.4973 6.07417C32.6042 6.25237 32.6577 6.48403 32.6577 6.76915V11.7944C33.8694 11.7944 34.6535 11.8033 35.0099 11.8211C35.3841 11.8389 35.6782 11.8924 35.892 11.9815C36.1237 12.0528 36.1949 12.231 36.1058 12.5161L36.0257 12.8101C35.9722 13.0418 35.8385 13.2111 35.6247 13.318C35.4109 13.4071 35.1792 13.4517 34.9297 13.4517H32.6577V20.1074C32.6577 21.1053 32.3815 21.6934 31.829 21.8716L31.4816 21.9785C31.339 22.0142 31.2321 22.032 31.1608 22.032C30.9291 22.032 30.7331 21.9518 30.5727 21.7914C30.4302 21.6132 30.3589 21.3905 30.3589 21.1232ZM19.6402 14.1466C19.6402 12.9883 19.9164 12.0617 20.4688 11.3667C20.9499 10.743 21.7073 10.3599 22.7408 10.2173C22.7943 10.0926 22.8567 10.0124 22.928 9.97675C23.0349 9.92329 23.1685 9.89656 23.3289 9.89656C24.113 9.89656 24.7723 10.2262 25.3069 10.8856C25.8593 11.5271 26.1356 12.3023 26.1356 13.2111C26.1356 14.5119 25.8415 15.5099 25.2535 16.2048C24.6832 16.8998 23.81 17.2473 22.6339 17.2473C21.7786 17.2473 21.0658 16.9533 20.4955 16.3652C19.9253 15.7772 19.6402 15.0376 19.6402 14.1466ZM27.2315 27.3245C26.6256 27.3067 26.189 27.2176 25.9217 27.0572C25.6544 26.9147 25.5208 26.5761 25.5208 26.0415C25.5208 25.3109 25.5653 24.4288 25.6544 23.3952C25.7079 22.7537 25.797 22.3171 25.9217 22.0854C26.0465 21.836 26.2959 21.6756 26.6702 21.6043L27.1513 21.4974C27.2048 21.4796 27.2849 21.4707 27.3919 21.4707C27.8552 21.4707 28.0601 21.8538 28.0067 22.62L27.8195 25.1327C27.8017 25.4178 27.9443 25.5603 28.2472 25.5603C28.9422 25.5603 29.9847 25.5425 31.3746 25.5069C32.7646 25.4712 33.7714 25.4267 34.3951 25.3732C34.6446 25.3376 34.8495 25.3643 35.0099 25.4534C35.1703 25.5603 35.2505 25.7029 35.2505 25.8811C35.2505 25.9346 35.2327 26.0148 35.197 26.1217L35.1168 26.3622C35.0634 26.5404 34.903 26.7097 34.6357 26.8701C34.3862 27.0305 34.0476 27.1285 33.62 27.1641C32.622 27.2889 30.8846 27.3513 28.4076 27.3513C27.7839 27.3513 27.3919 27.3423 27.2315 27.3245ZM22.8745 11.7944C22.7676 11.7944 22.6963 11.7944 22.6607 11.7944C22.3755 11.83 22.1261 12.0528 21.9122 12.4626C21.6984 12.8725 21.5915 13.3536 21.5915 13.9061C21.5915 14.405 21.7162 14.7971 21.9657 15.0822C22.233 15.3673 22.5448 15.5099 22.9012 15.5099C23.7388 15.5099 24.1575 14.8594 24.1575 13.5586C24.1575 13.0953 24.0863 12.7389 23.9437 12.4894C23.819 12.2399 23.6675 12.0706 23.4893 11.9815C23.3645 11.928 23.2042 11.8568 23.0081 11.7677C22.9725 11.7855 22.928 11.7944 22.8745 11.7944Z" fill="black"/>
<path d="M50.6852 25.8544V9.0412C50.6852 8.54224 50.7386 8.16802 50.8456 7.91854C50.9525 7.66906 51.1752 7.46413 51.5138 7.30375L51.8613 7.14337C52.0039 7.07209 52.1553 7.03645 52.3157 7.03645C52.5474 7.03645 52.7167 7.13446 52.8236 7.33048C52.9305 7.50868 52.984 7.74034 52.984 8.02546V24.8386C52.984 25.8366 52.7077 26.4246 52.1553 26.6028L51.8078 26.7097C51.6653 26.7454 51.5584 26.7632 51.4871 26.7632C51.2554 26.7632 51.0594 26.6741 50.899 26.4959C50.7565 26.3355 50.6852 26.1217 50.6852 25.8544ZM40.501 14.2001C40.501 12.2934 41.5346 11.1885 43.6017 10.8856C43.6195 10.8678 43.6374 10.841 43.6552 10.8054C43.7443 10.5737 43.8334 10.4312 43.9225 10.3777C44.0294 10.3242 44.1631 10.2975 44.3234 10.2975C44.7868 10.2975 45.2323 10.4668 45.6599 10.8054C46.1054 11.1261 46.4618 11.5806 46.7291 12.1686C46.9964 12.7389 47.1301 13.3715 47.1301 14.0664C47.1301 15.0109 46.845 15.7772 46.2747 16.3652C45.7045 16.9355 44.8669 17.2206 43.7621 17.2206C42.7642 17.2206 41.9712 16.9355 41.3831 16.3652C40.7951 15.795 40.501 15.0733 40.501 14.2001ZM38.0419 21.7112C38.0419 21.5865 38.0864 21.4528 38.1755 21.3103L38.3626 20.9895C38.5052 20.7579 38.6656 20.6064 38.8438 20.5351C39.022 20.4638 39.2626 20.4193 39.5655 20.4015C40.4387 20.348 41.7663 20.3213 43.5483 20.3213C45.4194 20.3213 47.0232 20.348 48.3597 20.4015C48.7161 20.4193 48.9923 20.4727 49.1883 20.5618C49.4021 20.6331 49.4823 20.8113 49.4289 21.0964L49.3754 21.4172C49.3219 21.6845 49.1616 21.8805 48.8943 22.0053C48.6448 22.1122 48.3864 22.1656 48.1191 22.1656C47.1212 22.13 45.3926 22.1122 42.9335 22.1122C40.7773 22.1122 39.4675 22.13 39.0042 22.1656C38.3626 22.1835 38.0419 22.032 38.0419 21.7112ZM44.1631 12.329C44.0918 12.4003 43.9938 12.4448 43.869 12.4626C43.7621 12.4626 43.6908 12.4626 43.6552 12.4626C43.3344 12.5161 43.0493 12.6676 42.7998 12.9171C42.5682 13.1487 42.4523 13.4962 42.4523 13.9595C42.4523 14.405 42.5682 14.7703 42.7998 15.0555C43.0493 15.3406 43.3701 15.4831 43.7621 15.4831C44.1541 15.4831 44.4838 15.3851 44.7511 15.1891C45.0184 14.9753 45.1521 14.6278 45.1521 14.1466C45.1521 13.2913 44.8402 12.6765 44.2165 12.3023L44.1631 12.329Z" fill="black"/>
<path d="M63.828 11.634C63.828 11.5449 63.8636 11.4113 63.9349 11.2331L64.0151 11.046C64.1576 10.8321 64.3091 10.6896 64.4695 10.6183C64.6477 10.547 64.8972 10.4935 65.2179 10.4579C65.61 10.4223 66.2426 10.4044 67.1158 10.4044C67.7216 10.4044 68.3453 10.4133 68.9869 10.4312V7.7047C68.9869 7.20574 69.0403 6.83152 69.1472 6.58204C69.2542 6.33256 69.4769 6.12763 69.8155 5.96725L70.163 5.80687C70.3055 5.73559 70.457 5.69995 70.6174 5.69995C70.8491 5.69995 71.0183 5.79796 71.1253 5.99398C71.2322 6.17218 71.2856 6.40384 71.2856 6.68896V20.0005C71.2856 20.9984 71.0094 21.5865 70.457 21.7647L70.1095 21.8716C69.967 21.9072 69.86 21.9251 69.7888 21.9251C69.5571 21.9251 69.3611 21.8449 69.2007 21.6845C69.0582 21.5063 68.9869 21.2835 68.9869 21.0162V16.3385C68.6661 16.3385 68.4166 16.3296 68.2384 16.3118L66.8217 16.285L65.6189 16.3118C65.3872 16.3296 65.0576 16.3385 64.6299 16.3385C64.0953 16.3385 63.828 16.187 63.828 15.8841C63.828 15.795 63.8636 15.6613 63.9349 15.4831L64.0151 15.296C64.1576 15.0822 64.3091 14.9396 64.4695 14.8683C64.6477 14.7971 64.8972 14.7436 65.2179 14.708C65.61 14.6723 66.2426 14.6545 67.1158 14.6545C67.7216 14.6545 68.3453 14.6634 68.9869 14.6812V12.0884C68.6661 12.0884 68.4166 12.0795 68.2384 12.0617L66.8217 12.035L65.6189 12.0617C65.3872 12.0795 65.0576 12.0884 64.6299 12.0884C64.0953 12.0884 63.828 11.937 63.828 11.634ZM56.2634 14.5476C56.2634 13.2824 56.5841 12.2132 57.2257 11.34C57.7603 10.5915 58.5176 10.1371 59.4977 9.97675C59.5155 9.94111 59.5334 9.90547 59.5512 9.86983C59.6403 9.63817 59.7294 9.49561 59.8185 9.44215C59.9254 9.38869 60.059 9.36196 60.2194 9.36196C60.9857 9.36196 61.6005 9.71836 62.0638 10.4312C62.5271 11.144 62.7588 12.0261 62.7588 13.0774C62.7588 14.503 62.4202 15.6435 61.743 16.4989C61.0837 17.3542 60.166 17.7819 58.9899 17.7819C58.1523 17.7819 57.4841 17.4879 56.9851 16.8998C56.504 16.2939 56.2634 15.5099 56.2634 14.5476ZM65.8595 27.3245C65.2536 27.3067 64.817 27.2176 64.5497 27.0572C64.2824 26.9147 64.1487 26.5761 64.1487 26.0415C64.1487 25.3109 64.1933 24.4288 64.2824 23.3952C64.3359 22.7537 64.425 22.3171 64.5497 22.0854C64.6744 21.836 64.9239 21.6756 65.2981 21.6043L65.7793 21.4974C65.8327 21.4796 65.9129 21.4707 66.0198 21.4707C66.4832 21.4707 66.6881 21.8538 66.6346 22.62L66.4475 25.1327C66.4297 25.4178 66.5723 25.5603 66.8752 25.5603C67.392 25.5603 68.1137 25.5425 69.0403 25.5069C69.9848 25.4712 70.7778 25.4267 71.4193 25.3732C71.6688 25.3376 71.8737 25.3643 72.0341 25.4534C72.1945 25.5603 72.2747 25.7029 72.2747 25.8811C72.2747 25.9346 72.2568 26.0148 72.2212 26.1217L72.141 26.3622C72.0875 26.5404 71.9272 26.7097 71.6599 26.8701C71.4104 27.0305 71.0718 27.1285 70.6441 27.1641C69.6462 27.2889 68.3632 27.3513 66.795 27.3513C66.3317 27.3513 66.0198 27.3423 65.8595 27.3245ZM60.059 11.3934C59.9878 11.4647 59.8898 11.5093 59.765 11.5271C59.6581 11.5271 59.5868 11.5271 59.5512 11.5271C59.2482 11.5806 58.9453 11.8389 58.6424 12.3023C58.3572 12.7656 58.2147 13.3447 58.2147 14.0397C58.2147 14.5921 58.3038 15.0644 58.482 15.4564C58.678 15.8484 58.9364 16.0445 59.2572 16.0445C59.667 16.0445 60.0234 15.8306 60.3263 15.4029C60.6293 14.9753 60.7808 14.3159 60.7808 13.4249C60.7808 12.8369 60.7362 12.3914 60.6471 12.0884C60.558 11.7855 60.4333 11.5806 60.2729 11.4736C60.2194 11.438 60.166 11.4024 60.1125 11.3667L60.059 11.3934Z" fill="black"/>
<path d="M74.378 19.0115C74.378 18.8868 74.4225 18.7531 74.5116 18.6105L74.6987 18.2898C74.8235 18.0759 74.966 17.9423 75.1264 17.8888C75.2868 17.8176 75.5452 17.7552 75.9016 17.7017C76.7569 17.5948 78.3518 17.5413 80.6863 17.5413C83.0207 17.5413 85.6046 17.5948 88.438 17.7017C88.7944 17.7195 89.0706 17.773 89.2666 17.8621C89.4804 17.9334 89.5606 18.1116 89.5072 18.3967L89.4537 18.7175C89.4002 18.9848 89.2399 19.1808 88.9726 19.3055C88.7231 19.4303 88.4647 19.4837 88.1974 19.4659C87.5202 19.4481 86.8074 19.4303 86.059 19.4124V25.2396C86.059 26.2375 85.7828 26.8256 85.2304 27.0038L84.8829 27.1107C84.7403 27.1463 84.6334 27.1641 84.5621 27.1641C84.3304 27.1641 84.1344 27.075 83.974 26.8968C83.8315 26.7365 83.7602 26.5226 83.7602 26.2553V20.1342C83.7602 19.8312 83.778 19.5728 83.8137 19.359H80.9268V23.6358C80.9268 24.6337 80.6506 25.2218 80.0982 25.4L79.7507 25.5069C79.6081 25.5425 79.5012 25.5603 79.43 25.5603C79.1983 25.5603 79.0023 25.4712 78.8419 25.293C78.6993 25.1327 78.6281 24.9188 78.6281 24.6515V20.1342C78.6281 19.8312 78.6459 19.5817 78.6815 19.3857C77.149 19.4035 76.0352 19.4303 75.3403 19.4659C74.6987 19.4837 74.378 19.3323 74.378 19.0115ZM79.5636 14.4139C78.8508 14.4139 78.4944 14.0308 78.4944 13.2645V9.0412C78.4944 8.61352 78.5924 8.29276 78.7884 8.07892C78.9845 7.86508 79.2428 7.74925 79.5636 7.73143L81.1139 7.65124C82.3257 7.56214 83.3771 7.51759 84.2681 7.51759C84.7314 7.51759 85.0432 7.62451 85.2036 7.83835C85.364 8.03437 85.4531 8.3284 85.4709 8.72044C85.5244 9.754 85.5511 10.5826 85.5511 11.2063C85.5511 11.6162 85.5333 12.2488 85.4977 13.1042C85.4977 13.6388 85.3996 13.9773 85.2036 14.1199C85.0076 14.2625 84.7136 14.3337 84.3215 14.3337L79.5636 14.4139ZM80.713 12.5428C81.0516 12.5607 81.4703 12.5607 81.9693 12.5428C82.4683 12.525 82.8959 12.4983 83.2523 12.4626C83.2523 11.2331 83.2434 10.1639 83.2256 9.25504C82.2277 9.25504 81.3901 9.29959 80.713 9.38869L80.6863 11.0192L80.713 12.5428Z" fill="black"/>
</svg>
