<svg width="36" height="36" viewBox="0 0 36 36" fill="none" xmlns="http://www.w3.org/2000/svg">
<path fill-rule="evenodd" clip-rule="evenodd" d="M19.8095 9.44178C17.9659 8.62029 15.906 8.41678 13.9372 8.8616C11.9685 9.30642 10.1962 10.3757 8.8848 11.9101C7.5734 13.4444 6.79311 15.3616 6.6603 17.3756C6.5275 19.3897 7.04929 21.3927 8.14787 23.0859C9.24645 24.7792 10.8629 26.0719 12.7563 26.7714C14.6496 27.4709 16.7183 27.5396 18.6539 26.9674C20.5895 26.3951 22.2882 25.2124 23.4967 23.5958C24.7053 21.9792 25.3589 20.0152 25.36 17.9968V17.004C25.36 16.2088 26.0047 15.564 26.8 15.564C27.5953 15.564 28.24 16.2088 28.24 17.004V17.9976C28.2385 20.6371 27.3838 23.2062 25.8034 25.3202C24.223 27.4343 22.0016 28.9808 19.4705 29.7292C16.9393 30.4775 14.2341 30.3877 11.7582 29.473C9.28231 28.5582 7.16843 26.8677 5.73183 24.6534C4.29522 22.4392 3.61287 19.8199 3.78654 17.1861C3.96021 14.5524 4.98059 12.0453 6.6955 10.0389C8.41042 8.03244 10.728 6.6341 13.3025 6.05241C15.8771 5.47072 18.5707 5.73685 20.9817 6.81111C21.7081 7.13479 22.0346 7.98609 21.711 8.71253C21.3873 9.43897 20.536 9.76547 19.8095 9.44178ZM27.8177 8.33891C28.3804 8.90098 28.3808 9.81274 27.8188 10.3754L17.0188 21.1862C16.7488 21.4564 16.3824 21.6084 16.0004 21.6084C15.6183 21.6085 15.2519 21.4568 14.9818 21.1867L11.7418 17.9467C11.1794 17.3843 11.1794 16.4726 11.7418 15.9102C12.3041 15.3479 13.2159 15.3479 13.7782 15.9102L15.9995 18.1315L25.7813 8.33992C26.3433 7.77729 27.2551 7.77683 27.8177 8.33891Z" fill="black"/>
</svg>
